<svg width="1501" height="329" viewBox="0 0 1501 329" fill="none" xmlns="http://www.w3.org/2000/svg">
<rect width="1501" height="329" fill="black"/>
<circle cx="1203.5" cy="37.5" r="5.5" stroke="#82AD7C" stroke-width="2"/>
<circle cx="760.5" cy="47.5" r="5.5" stroke="#82AD7C" stroke-width="2"/>
<circle cx="1187.5" cy="20.5" r="5.5" stroke="#646262" stroke-width="2"/>
<circle cx="713.5" cy="97.5" r="5.5" stroke="#646262" stroke-width="2"/>
<circle cx="1290.5" cy="54.5" r="5.5" stroke="#646262" stroke-width="2"/>
<circle cx="847.5" cy="64.5" r="5.5" stroke="#646262" stroke-width="2"/>
<circle opacity="0.5" cx="1308.5" cy="71.5" r="5.5" stroke="#646262" stroke-width="2"/>
<circle opacity="0.6" cx="865.5" cy="81.5" r="5.5" stroke="#646262" stroke-width="2"/>
<circle cx="1324.5" cy="88.5" r="5.5" stroke="#646262" stroke-width="2"/>
<circle cx="881.5" cy="98.5" r="5.5" stroke="#646262" stroke-width="2"/>
<circle cx="1340.5" cy="104.5" r="5.5" stroke="#646262" stroke-width="2"/>
<circle cx="897.5" cy="114.5" r="5.5" stroke="#646262" stroke-width="2"/>
<circle cx="1322.5" cy="124.5" r="5.5" stroke="#646262" stroke-width="2"/>
<circle cx="848.5" cy="201.5" r="5.5" stroke="#646262" stroke-width="2"/>
<circle cx="1239.5" cy="20.5" r="5.5" stroke="#646262" stroke-width="2"/>
<circle cx="796.5" cy="30.5" r="5.5" stroke="#646262" stroke-width="2"/>
<circle opacity="0.5" cx="1342.5" cy="54.5" r="5.5" stroke="#646262" stroke-width="2"/>
<circle opacity="0.6" cx="899.5" cy="64.5" r="5.5" stroke="#646262" stroke-width="2"/>
<circle cx="1081.5" cy="251.5" r="5.5" stroke="#646262" stroke-width="2"/>
<circle opacity="0.8" cx="1360.5" cy="71.5" r="5.5" stroke="#646262" stroke-width="2"/>
<circle opacity="0.6" cx="917.5" cy="81.5" r="5.5" stroke="#646262" stroke-width="2"/>
<circle opacity="0.8" cx="1099.5" cy="268.5" r="5.5" stroke="#646262" stroke-width="2"/>
<circle opacity="0.8" cx="1376.5" cy="88.5" r="5.5" stroke="#646262" stroke-width="2"/>
<circle opacity="0.8" cx="933.5" cy="98.5" r="5.5" stroke="#646262" stroke-width="2"/>
<circle cx="1250.5" cy="162.5" r="5.5" stroke="#646262" stroke-width="2"/>
<circle cx="776.5" cy="239.5" r="5.5" stroke="#646262" stroke-width="2"/>
<circle cx="1061.5" cy="54.5" r="5.5" stroke="#646262" stroke-width="2"/>
<circle cx="587.5" cy="131.5" r="5.5" stroke="#646262" stroke-width="2"/>
<circle opacity="0.6" cx="1124.5" cy="164.5" r="5.5" stroke="#646262" stroke-width="2"/>
<circle opacity="0.6" cx="650.5" cy="241.5" r="5.5" stroke="#646262" stroke-width="2"/>
<circle opacity="0.6" cx="1248.5" cy="250.5" r="5.5" stroke="#646262" stroke-width="2"/>
<circle opacity="0.6" cx="1046.5" cy="146.5" r="5.5" stroke="#646262" stroke-width="2"/>
<circle opacity="0.6" cx="572.5" cy="223.5" r="5.5" stroke="#646262" stroke-width="2"/>
<circle opacity="0.8" cx="1392.5" cy="104.5" r="5.5" stroke="#646262" stroke-width="2"/>
<circle opacity="0.8" cx="949.5" cy="114.5" r="5.5" stroke="#646262" stroke-width="2"/>
<circle opacity="0.4" cx="1266.5" cy="178.5" r="5.5" stroke="#646262" stroke-width="2"/>
<circle opacity="0.4" cx="792.5" cy="255.5" r="5.5" stroke="#646262" stroke-width="2"/>
<circle opacity="0.4" cx="1410.5" cy="196.5" r="5.5" stroke="#646262" stroke-width="2"/>
<circle opacity="0.4" cx="936.5" cy="273.5" r="5.5" stroke="#646262" stroke-width="2"/>
<circle cx="1077.5" cy="70.5" r="5.5" stroke="#646262" stroke-width="2"/>
<circle cx="603.5" cy="147.5" r="5.5" stroke="#646262" stroke-width="2"/>
<circle opacity="0.6" cx="1140.5" cy="180.5" r="5.5" stroke="#646262" stroke-width="2"/>
<circle opacity="0.6" cx="666.5" cy="257.5" r="5.5" stroke="#646262" stroke-width="2"/>
<circle opacity="0.6" cx="1264.5" cy="266.5" r="5.5" stroke="#646262" stroke-width="2"/>
<circle opacity="0.6" cx="1062.5" cy="162.5" r="5.5" stroke="#646262" stroke-width="2"/>
<circle opacity="0.6" cx="588.5" cy="239.5" r="5.5" stroke="#646262" stroke-width="2"/>
<circle opacity="0.8" cx="1374.5" cy="124.5" r="5.5" stroke="#646262" stroke-width="2"/>
<circle opacity="0.8" cx="900.5" cy="201.5" r="5.5" stroke="#646262" stroke-width="2"/>
<circle opacity="0.4" cx="1248.5" cy="198.5" r="5.5" stroke="#646262" stroke-width="2"/>
<circle opacity="0.4" cx="774.5" cy="275.5" r="5.5" stroke="#646262" stroke-width="2"/>
<circle opacity="0.4" cx="1392.5" cy="216.5" r="5.5" stroke="#646262" stroke-width="2"/>
<circle opacity="0.4" cx="918.5" cy="293.5" r="5.5" stroke="#646262" stroke-width="2"/>
<circle opacity="0.4" cx="1395.5" cy="288.5" r="5.5" stroke="#646262" stroke-width="2"/>
<circle cx="1059.5" cy="90.5" r="5.5" stroke="#646262" stroke-width="2"/>
<circle cx="585.5" cy="167.5" r="5.5" stroke="#646262" stroke-width="2"/>
<circle opacity="0.6" cx="1122.5" cy="200.5" r="5.5" stroke="#646262" stroke-width="2"/>
<circle opacity="0.6" cx="648.5" cy="277.5" r="5.5" stroke="#646262" stroke-width="2"/>
<circle opacity="0.6" cx="1246.5" cy="286.5" r="5.5" stroke="#646262" stroke-width="2"/>
<circle opacity="0.6" cx="1044.5" cy="182.5" r="5.5" stroke="#646262" stroke-width="2"/>
<circle opacity="0.6" cx="570.5" cy="259.5" r="5.5" stroke="#646262" stroke-width="2"/>
<circle cx="1291.5" cy="20.5" r="5.5" stroke="#646262" stroke-width="2"/>
<circle cx="848.5" cy="30.5" r="5.5" stroke="#646262" stroke-width="2"/>
<circle opacity="0.8" cx="1394.5" cy="54.5" r="5.5" stroke="#646262" stroke-width="2"/>
<circle opacity="0.6" cx="951.5" cy="64.5" r="5.5" stroke="#646262" stroke-width="2"/>
<circle opacity="0.8" cx="1133.5" cy="251.5" r="5.5" stroke="#646262" stroke-width="2"/>
<circle cx="1268.5" cy="128.5" r="5.5" stroke="#646262" stroke-width="2"/>
<circle cx="794.5" cy="205.5" r="5.5" stroke="#646262" stroke-width="2"/>
<circle cx="1079.5" cy="20.5" r="5.5" stroke="#646262" stroke-width="2"/>
<circle cx="605.5" cy="97.5" r="5.5" stroke="#646262" stroke-width="2"/>
<circle opacity="0.6" cx="1142.5" cy="130.5" r="5.5" stroke="#646262" stroke-width="2"/>
<circle opacity="0.6" cx="668.5" cy="207.5" r="5.5" stroke="#646262" stroke-width="2"/>
<circle opacity="0.8" cx="1412.5" cy="71.5" r="5.5" stroke="#646262" stroke-width="2"/>
<circle opacity="0.8" cx="969.5" cy="81.5" r="5.5" stroke="#646262" stroke-width="2"/>
<circle opacity="0.8" cx="1151.5" cy="268.5" r="5.5" stroke="#646262" stroke-width="2"/>
<circle cx="1286.5" cy="145.5" r="5.5" stroke="#646262" stroke-width="2"/>
<circle cx="812.5" cy="222.5" r="5.5" stroke="#646262" stroke-width="2"/>
<circle cx="1097.5" cy="37.5" r="5.5" stroke="#646262" stroke-width="2"/>
<circle cx="623.5" cy="114.5" r="5.5" stroke="#646262" stroke-width="2"/>
<circle opacity="0.6" cx="1160.5" cy="147.5" r="5.5" stroke="#646262" stroke-width="2"/>
<circle opacity="0.6" cx="686.5" cy="224.5" r="5.5" stroke="#646262" stroke-width="2"/>
<circle opacity="0.6" cx="1284.5" cy="233.5" r="5.5" stroke="#646262" stroke-width="2"/>
<circle opacity="0.6" cx="1082.5" cy="129.5" r="5.5" stroke="#646262" stroke-width="2"/>
<circle opacity="0.6" cx="608.5" cy="206.5" r="5.5" stroke="#646262" stroke-width="2"/>
<circle opacity="0.8" cx="1428.5" cy="88.5" r="5.5" stroke="#646262" stroke-width="2"/>
<circle opacity="0.8" cx="985.5" cy="98.5" r="5.5" stroke="#646262" stroke-width="2"/>
<circle cx="1302.5" cy="162.5" r="5.5" stroke="#646262" stroke-width="2"/>
<circle cx="828.5" cy="239.5" r="5.5" stroke="#646262" stroke-width="2"/>
<circle cx="1113.5" cy="54.5" r="5.5" stroke="#646262" stroke-width="2"/>
<circle opacity="0.5" cx="639.5" cy="131.5" r="5.5" stroke="#646262" stroke-width="2"/>
<circle opacity="0.6" cx="1176.5" cy="164.5" r="5.5" stroke="#646262" stroke-width="2"/>
<circle opacity="0.6" cx="702.5" cy="241.5" r="5.5" stroke="#646262" stroke-width="2"/>
<circle opacity="0.8" cx="1444.5" cy="104.5" r="5.5" stroke="#646262" stroke-width="2"/>
<circle opacity="0.8" cx="1001.5" cy="114.5" r="5.5" stroke="#646262" stroke-width="2"/>
<circle opacity="0.4" cx="1318.5" cy="178.5" r="5.5" stroke="#646262" stroke-width="2"/>
<circle opacity="0.4" cx="844.5" cy="255.5" r="5.5" stroke="#646262" stroke-width="2"/>
<circle opacity="0.4" cx="1462.5" cy="196.5" r="5.5" stroke="#646262" stroke-width="2"/>
<circle cx="1129.5" cy="70.5" r="5.5" stroke="#646262" stroke-width="2"/>
<circle opacity="0.5" cx="655.5" cy="147.5" r="5.5" stroke="#646262" stroke-width="2"/>
<circle opacity="0.6" cx="1192.5" cy="180.5" r="5.5" stroke="#646262" stroke-width="2"/>
<circle opacity="0.6" cx="718.5" cy="257.5" r="5.5" stroke="#646262" stroke-width="2"/>
<circle opacity="0.8" cx="1426.5" cy="124.5" r="5.5" stroke="#646262" stroke-width="2"/>
<circle opacity="0.8" cx="952.5" cy="201.5" r="5.5" stroke="#646262" stroke-width="2"/>
<circle opacity="0.4" cx="1300.5" cy="198.5" r="5.5" stroke="#646262" stroke-width="2"/>
<circle opacity="0.4" cx="826.5" cy="275.5" r="5.5" stroke="#646262" stroke-width="2"/>
<circle opacity="0.4" cx="1444.5" cy="216.5" r="5.5" stroke="#646262" stroke-width="2"/>
<circle opacity="0.4" cx="970.5" cy="293.5" r="5.5" stroke="#646262" stroke-width="2"/>
<circle opacity="0.4" cx="1447.5" cy="288.5" r="5.5" stroke="#646262" stroke-width="2"/>
<circle cx="1111.5" cy="90.5" r="5.5" stroke="#646262" stroke-width="2"/>
<circle opacity="0.5" cx="637.5" cy="167.5" r="5.5" stroke="#646262" stroke-width="2"/>
<circle opacity="0.6" cx="1174.5" cy="200.5" r="5.5" stroke="#646262" stroke-width="2"/>
<circle opacity="0.6" cx="700.5" cy="277.5" r="5.5" stroke="#646262" stroke-width="2"/>
<circle opacity="0.6" cx="1298.5" cy="286.5" r="5.5" stroke="#646262" stroke-width="2"/>
<circle opacity="0.6" cx="1096.5" cy="182.5" r="5.5" stroke="#646262" stroke-width="2"/>
<circle opacity="0.6" cx="622.5" cy="259.5" r="5.5" stroke="#646262" stroke-width="2"/>
<circle cx="1274.5" cy="37.5" r="5.5" stroke="#646262" stroke-width="2"/>
<circle cx="831.5" cy="47.5" r="5.5" stroke="#646262" stroke-width="2"/>
<circle opacity="0.5" cx="1327.5" cy="37.5" r="5.5" stroke="#646262" stroke-width="2"/>
<circle opacity="0.6" cx="884.5" cy="47.5" r="5.5" stroke="#646262" stroke-width="2"/>
<circle cx="1066.5" cy="234.5" r="5.5" stroke="#646262" stroke-width="2"/>
<circle cx="1203.5" cy="20.5" r="5.5" stroke="#535151" stroke-width="2"/>
<circle cx="760.5" cy="30.5" r="5.5" stroke="#535151" stroke-width="2"/>
<circle opacity="0.5" cx="1306.5" cy="54.5" r="5.5" stroke="#535151" stroke-width="2"/>
<circle opacity="0.6" cx="863.5" cy="64.5" r="5.5" stroke="#535151" stroke-width="2"/>
<circle opacity="0.5" cx="1324.5" cy="71.5" r="5.5" stroke="#535151" stroke-width="2"/>
<circle opacity="0.6" cx="881.5" cy="81.5" r="5.5" stroke="#535151" stroke-width="2"/>
<circle cx="1063.5" cy="268.5" r="5.5" stroke="#535151" stroke-width="2"/>
<circle cx="1340.5" cy="88.5" r="5.5" stroke="#535151" stroke-width="2"/>
<circle cx="897.5" cy="98.5" r="5.5" stroke="#535151" stroke-width="2"/>
<circle cx="1356.5" cy="104.5" r="5.5" stroke="#535151" stroke-width="2"/>
<circle cx="913.5" cy="114.5" r="5.5" stroke="#535151" stroke-width="2"/>
<circle cx="1338.5" cy="124.5" r="5.5" stroke="#535151" stroke-width="2"/>
<circle cx="864.5" cy="201.5" r="5.5" stroke="#535151" stroke-width="2"/>
<circle cx="1255.5" cy="20.5" r="5.5" stroke="#535151" stroke-width="2"/>
<circle cx="812.5" cy="30.5" r="5.5" stroke="#535151" stroke-width="2"/>
<circle opacity="0.8" cx="1358.5" cy="54.5" r="5.5" stroke="#535151" stroke-width="2"/>
<circle opacity="0.6" cx="915.5" cy="64.5" r="5.5" stroke="#535151" stroke-width="2"/>
<circle opacity="0.8" cx="1097.5" cy="251.5" r="5.5" stroke="#535151" stroke-width="2"/>
<circle opacity="0.8" cx="1376.5" cy="71.5" r="5.5" stroke="#535151" stroke-width="2"/>
<circle opacity="0.6" cx="933.5" cy="81.5" r="5.5" stroke="#535151" stroke-width="2"/>
<circle opacity="0.8" cx="1115.5" cy="268.5" r="5.5" stroke="#535151" stroke-width="2"/>
<circle cx="1250.5" cy="145.5" r="5.5" stroke="#535151" stroke-width="2"/>
<circle cx="776.5" cy="222.5" r="5.5" stroke="#535151" stroke-width="2"/>
<circle cx="1061.5" cy="37.5" r="5.5" stroke="#535151" stroke-width="2"/>
<circle cx="587.5" cy="114.5" r="5.5" stroke="#535151" stroke-width="2"/>
<circle opacity="0.6" cx="1124.5" cy="147.5" r="5.5" stroke="#535151" stroke-width="2"/>
<circle opacity="0.6" cx="650.5" cy="224.5" r="5.5" stroke="#535151" stroke-width="2"/>
<circle opacity="0.6" cx="1248.5" cy="233.5" r="5.5" stroke="#535151" stroke-width="2"/>
<circle opacity="0.6" cx="1046.5" cy="129.5" r="5.5" stroke="#535151" stroke-width="2"/>
<circle opacity="0.6" cx="572.5" cy="206.5" r="5.5" stroke="#535151" stroke-width="2"/>
<circle opacity="0.8" cx="1392.5" cy="88.5" r="5.5" stroke="#535151" stroke-width="2"/>
<circle opacity="0.8" cx="949.5" cy="98.5" r="5.5" stroke="#535151" stroke-width="2"/>
<circle cx="1266.5" cy="162.5" r="5.5" stroke="#535151" stroke-width="2"/>
<circle cx="792.5" cy="239.5" r="5.5" stroke="#535151" stroke-width="2"/>
<circle cx="1077.5" cy="54.5" r="5.5" stroke="#535151" stroke-width="2"/>
<circle cx="603.5" cy="131.5" r="5.5" stroke="#535151" stroke-width="2"/>
<circle opacity="0.6" cx="1140.5" cy="164.5" r="5.5" stroke="#535151" stroke-width="2"/>
<circle opacity="0.6" cx="666.5" cy="241.5" r="5.5" stroke="#535151" stroke-width="2"/>
<circle opacity="0.6" cx="1264.5" cy="250.5" r="5.5" stroke="#535151" stroke-width="2"/>
<circle opacity="0.6" cx="1062.5" cy="146.5" r="5.5" stroke="#535151" stroke-width="2"/>
<circle opacity="0.6" cx="588.5" cy="223.5" r="5.5" stroke="#535151" stroke-width="2"/>
<circle opacity="0.8" cx="1408.5" cy="104.5" r="5.5" stroke="#535151" stroke-width="2"/>
<circle opacity="0.8" cx="965.5" cy="114.5" r="5.5" stroke="#535151" stroke-width="2"/>
<circle opacity="0.4" cx="1282.5" cy="178.5" r="5.5" stroke="#535151" stroke-width="2"/>
<circle opacity="0.4" cx="808.5" cy="255.5" r="5.5" stroke="#535151" stroke-width="2"/>
<circle opacity="0.4" cx="1426.5" cy="196.5" r="5.5" stroke="#535151" stroke-width="2"/>
<circle opacity="0.4" cx="952.5" cy="273.5" r="5.5" stroke="#535151" stroke-width="2"/>
<circle cx="1093.5" cy="70.5" r="5.5" stroke="#535151" stroke-width="2"/>
<circle cx="619.5" cy="147.5" r="5.5" stroke="#535151" stroke-width="2"/>
<circle opacity="0.6" cx="1156.5" cy="180.5" r="5.5" stroke="#535151" stroke-width="2"/>
<circle opacity="0.6" cx="682.5" cy="257.5" r="5.5" stroke="#535151" stroke-width="2"/>
<circle opacity="0.6" cx="1280.5" cy="266.5" r="5.5" stroke="#535151" stroke-width="2"/>
<circle opacity="0.6" cx="1078.5" cy="162.5" r="5.5" stroke="#535151" stroke-width="2"/>
<circle opacity="0.6" cx="604.5" cy="239.5" r="5.5" stroke="#535151" stroke-width="2"/>
<circle opacity="0.8" cx="1390.5" cy="124.5" r="5.5" stroke="#535151" stroke-width="2"/>
<circle opacity="0.8" cx="916.5" cy="201.5" r="5.5" stroke="#535151" stroke-width="2"/>
<circle opacity="0.4" cx="1264.5" cy="198.5" r="5.5" stroke="#535151" stroke-width="2"/>
<circle opacity="0.4" cx="790.5" cy="275.5" r="5.5" stroke="#535151" stroke-width="2"/>
<circle opacity="0.4" cx="1408.5" cy="216.5" r="5.5" stroke="#535151" stroke-width="2"/>
<circle opacity="0.4" cx="934.5" cy="293.5" r="5.5" stroke="#535151" stroke-width="2"/>
<circle opacity="0.4" cx="1411.5" cy="288.5" r="5.5" stroke="#535151" stroke-width="2"/>
<circle cx="1075.5" cy="90.5" r="5.5" stroke="#535151" stroke-width="2"/>
<circle cx="601.5" cy="167.5" r="5.5" stroke="#535151" stroke-width="2"/>
<circle opacity="0.6" cx="1138.5" cy="200.5" r="5.5" stroke="#535151" stroke-width="2"/>
<circle opacity="0.6" cx="664.5" cy="277.5" r="5.5" stroke="#535151" stroke-width="2"/>
<circle opacity="0.6" cx="1262.5" cy="286.5" r="5.5" stroke="#535151" stroke-width="2"/>
<circle opacity="0.6" cx="1060.5" cy="182.5" r="5.5" stroke="#535151" stroke-width="2"/>
<circle opacity="0.6" cx="586.5" cy="259.5" r="5.5" stroke="#535151" stroke-width="2"/>
<circle opacity="0.5" cx="1307.5" cy="20.5" r="5.5" stroke="#535151" stroke-width="2"/>
<circle opacity="0.6" cx="864.5" cy="30.5" r="5.5" stroke="#535151" stroke-width="2"/>
<circle opacity="0.8" cx="1410.5" cy="54.5" r="5.5" stroke="#535151" stroke-width="2"/>
<circle opacity="0.8" cx="967.5" cy="64.5" r="5.5" stroke="#535151" stroke-width="2"/>
<circle opacity="0.8" cx="1149.5" cy="251.5" r="5.5" stroke="#535151" stroke-width="2"/>
<circle cx="1284.5" cy="128.5" r="5.5" stroke="#535151" stroke-width="2"/>
<circle cx="810.5" cy="205.5" r="5.5" stroke="#535151" stroke-width="2"/>
<circle cx="1095.5" cy="20.5" r="5.5" stroke="#535151" stroke-width="2"/>
<circle cx="621.5" cy="97.5" r="5.5" stroke="#535151" stroke-width="2"/>
<circle opacity="0.6" cx="1158.5" cy="130.5" r="5.5" stroke="#535151" stroke-width="2"/>
<circle opacity="0.6" cx="684.5" cy="207.5" r="5.5" stroke="#535151" stroke-width="2"/>
<circle opacity="0.8" cx="1428.5" cy="71.5" r="5.5" stroke="#535151" stroke-width="2"/>
<circle opacity="0.8" cx="985.5" cy="81.5" r="5.5" stroke="#535151" stroke-width="2"/>
<circle cx="1302.5" cy="145.5" r="5.5" stroke="#535151" stroke-width="2"/>
<circle cx="828.5" cy="222.5" r="5.5" stroke="#535151" stroke-width="2"/>
<circle cx="1113.5" cy="37.5" r="5.5" stroke="#535151" stroke-width="2"/>
<circle opacity="0.5" cx="639.5" cy="114.5" r="5.5" stroke="#535151" stroke-width="2"/>
<circle opacity="0.6" cx="1176.5" cy="147.5" r="5.5" stroke="#535151" stroke-width="2"/>
<circle opacity="0.6" cx="702.5" cy="224.5" r="5.5" stroke="#535151" stroke-width="2"/>
<circle opacity="0.8" cx="1444.5" cy="88.5" r="5.5" stroke="#535151" stroke-width="2"/>
<circle opacity="0.8" cx="1001.5" cy="98.5" r="5.5" stroke="#535151" stroke-width="2"/>
<circle cx="1318.5" cy="162.5" r="5.5" stroke="#535151" stroke-width="2"/>
<circle cx="844.5" cy="239.5" r="5.5" stroke="#535151" stroke-width="2"/>
<circle cx="1129.5" cy="54.5" r="5.5" stroke="#535151" stroke-width="2"/>
<circle opacity="0.5" cx="655.5" cy="131.5" r="5.5" stroke="#535151" stroke-width="2"/>
<circle opacity="0.6" cx="1192.5" cy="164.5" r="5.5" stroke="#535151" stroke-width="2"/>
<circle opacity="0.6" cx="718.5" cy="241.5" r="5.5" stroke="#535151" stroke-width="2"/>
<circle opacity="0.8" cx="1460.5" cy="104.5" r="5.5" stroke="#535151" stroke-width="2"/>
<circle opacity="0.8" cx="1017.5" cy="114.5" r="5.5" stroke="#535151" stroke-width="2"/>
<circle opacity="0.4" cx="1334.5" cy="178.5" r="5.5" stroke="#535151" stroke-width="2"/>
<circle opacity="0.4" cx="860.5" cy="255.5" r="5.5" stroke="#535151" stroke-width="2"/>
<circle opacity="0.4" cx="1478.5" cy="196.5" r="5.5" stroke="#535151" stroke-width="2"/>
<circle cx="1145.5" cy="70.5" r="5.5" stroke="#535151" stroke-width="2"/>
<circle opacity="0.5" cx="671.5" cy="147.5" r="5.5" stroke="#535151" stroke-width="2"/>
<circle opacity="0.6" cx="1208.5" cy="180.5" r="5.5" stroke="#535151" stroke-width="2"/>
<circle opacity="0.6" cx="734.5" cy="257.5" r="5.5" stroke="#535151" stroke-width="2"/>
<circle opacity="0.8" cx="1442.5" cy="124.5" r="5.5" stroke="#535151" stroke-width="2"/>
<circle opacity="0.8" cx="968.5" cy="201.5" r="5.5" stroke="#535151" stroke-width="2"/>
<circle opacity="0.4" cx="1316.5" cy="198.5" r="5.5" stroke="#535151" stroke-width="2"/>
<circle opacity="0.4" cx="842.5" cy="275.5" r="5.5" stroke="#535151" stroke-width="2"/>
<circle opacity="0.4" cx="1460.5" cy="216.5" r="5.5" stroke="#535151" stroke-width="2"/>
<circle opacity="0.4" cx="986.5" cy="293.5" r="5.5" stroke="#535151" stroke-width="2"/>
<circle opacity="0.4" cx="1463.5" cy="288.5" r="5.5" stroke="#535151" stroke-width="2"/>
<circle cx="1127.5" cy="90.5" r="5.5" stroke="#535151" stroke-width="2"/>
<circle opacity="0.5" cx="653.5" cy="167.5" r="5.5" stroke="#535151" stroke-width="2"/>
<circle opacity="0.6" cx="1190.5" cy="200.5" r="5.5" stroke="#535151" stroke-width="2"/>
<circle opacity="0.6" cx="716.5" cy="277.5" r="5.5" stroke="#535151" stroke-width="2"/>
<circle cx="1290.5" cy="37.5" r="5.5" stroke="#535151" stroke-width="2"/>
<circle cx="847.5" cy="47.5" r="5.5" stroke="#535151" stroke-width="2"/>
<circle opacity="0.5" cx="1343.5" cy="37.5" r="5.5" stroke="#535151" stroke-width="2"/>
<circle opacity="0.6" cx="900.5" cy="47.5" r="5.5" stroke="#535151" stroke-width="2"/>
<circle cx="1082.5" cy="234.5" r="5.5" stroke="#535151" stroke-width="2"/>
<circle cx="1187.5" cy="54.5" r="5.5" stroke="#535151" stroke-width="2"/>
<circle cx="713.5" cy="131.5" r="5.5" stroke="#535151" stroke-width="2"/>
<circle cx="1258.5" cy="91.5" r="5.5" stroke="#535151" stroke-width="2"/>
<circle cx="815.5" cy="101.5" r="5.5" stroke="#535151" stroke-width="2"/>
<circle cx="1240.5" cy="71.5" r="5.5" stroke="#535151" stroke-width="2"/>
<circle cx="797.5" cy="81.5" r="5.5" stroke="#535151" stroke-width="2"/>
<circle cx="1256.5" cy="108.5" r="5.5" stroke="#535151" stroke-width="2"/>
<circle cx="813.5" cy="118.5" r="5.5" stroke="#535151" stroke-width="2"/>
<circle cx="1192.5" cy="91.5" r="5.5" stroke="#535151" stroke-width="2"/>
<circle cx="749.5" cy="101.5" r="5.5" stroke="#535151" stroke-width="2"/>
<circle cx="1340.5" cy="141.5" r="5.5" stroke="#535151" stroke-width="2"/>
<circle cx="866.5" cy="218.5" r="5.5" stroke="#535151" stroke-width="2"/>
<circle opacity="0.8" cx="1409.5" cy="141.5" r="5.5" stroke="#535151" stroke-width="2"/>
<circle opacity="0.8" cx="935.5" cy="218.5" r="5.5" stroke="#535151" stroke-width="2"/>
<circle opacity="0.4" cx="1283.5" cy="215.5" r="5.5" stroke="#535151" stroke-width="2"/>
<circle opacity="0.4" cx="809.5" cy="292.5" r="5.5" stroke="#535151" stroke-width="2"/>
<circle opacity="0.4" cx="1427.5" cy="233.5" r="5.5" stroke="#535151" stroke-width="2"/>
<circle opacity="0.4" cx="1430.5" cy="305.5" r="5.5" stroke="#535151" stroke-width="2"/>
<circle cx="1094.5" cy="107.5" r="5.5" stroke="#535151" stroke-width="2"/>
<circle cx="620.5" cy="184.5" r="5.5" stroke="#535151" stroke-width="2"/>
<circle opacity="0.6" cx="1157.5" cy="217.5" r="5.5" stroke="#535151" stroke-width="2"/>
<circle opacity="0.6" cx="683.5" cy="294.5" r="5.5" stroke="#535151" stroke-width="2"/>
<circle opacity="0.6" cx="1281.5" cy="303.5" r="5.5" stroke="#535151" stroke-width="2"/>
<circle opacity="0.6" cx="1079.5" cy="199.5" r="5.5" stroke="#535151" stroke-width="2"/>
<circle opacity="0.6" cx="605.5" cy="276.5" r="5.5" stroke="#535151" stroke-width="2"/>
<circle cx="1221.5" cy="54.5" r="5.5" stroke="#535151" stroke-width="2"/>
<circle cx="778.5" cy="64.5" r="5.5" stroke="#535151" stroke-width="2"/>
<circle cx="1292.5" cy="91.5" r="5.5" stroke="#535151" stroke-width="2"/>
<circle cx="849.5" cy="101.5" r="5.5" stroke="#535151" stroke-width="2"/>
<circle cx="1274.5" cy="71.5" r="5.5" stroke="#535151" stroke-width="2"/>
<circle cx="831.5" cy="81.5" r="5.5" stroke="#535151" stroke-width="2"/>
<circle cx="1290.5" cy="108.5" r="5.5" stroke="#535151" stroke-width="2"/>
<circle cx="847.5" cy="118.5" r="5.5" stroke="#535151" stroke-width="2"/>
<circle cx="1226.5" cy="91.5" r="5.5" stroke="#535151" stroke-width="2"/>
<circle cx="783.5" cy="101.5" r="5.5" stroke="#535151" stroke-width="2"/>
<circle opacity="0.8" cx="1374.5" cy="141.5" r="5.5" stroke="#535151" stroke-width="2"/>
<circle opacity="0.8" cx="900.5" cy="218.5" r="5.5" stroke="#535151" stroke-width="2"/>
<circle opacity="0.4" cx="1248.5" cy="215.5" r="5.5" stroke="#535151" stroke-width="2"/>
<circle opacity="0.4" cx="774.5" cy="292.5" r="5.5" stroke="#535151" stroke-width="2"/>
<circle opacity="0.4" cx="1392.5" cy="233.5" r="5.5" stroke="#535151" stroke-width="2"/>
<circle opacity="0.4" cx="1395.5" cy="305.5" r="5.5" stroke="#535151" stroke-width="2"/>
<circle cx="1059.5" cy="107.5" r="5.5" stroke="#535151" stroke-width="2"/>
<circle cx="585.5" cy="184.5" r="5.5" stroke="#535151" stroke-width="2"/>
<circle opacity="0.6" cx="1122.5" cy="217.5" r="5.5" stroke="#535151" stroke-width="2"/>
<circle opacity="0.6" cx="648.5" cy="294.5" r="5.5" stroke="#535151" stroke-width="2"/>
<circle opacity="0.6" cx="1246.5" cy="303.5" r="5.5" stroke="#535151" stroke-width="2"/>
<circle opacity="0.6" cx="1044.5" cy="199.5" r="5.5" stroke="#535151" stroke-width="2"/>
<circle opacity="0.6" cx="570.5" cy="276.5" r="5.5" stroke="#535151" stroke-width="2"/>
<circle opacity="0.8" cx="1443.5" cy="141.5" r="5.5" stroke="#535151" stroke-width="2"/>
<circle opacity="0.8" cx="969.5" cy="218.5" r="5.5" stroke="#535151" stroke-width="2"/>
<circle opacity="0.4" cx="1317.5" cy="215.5" r="5.5" stroke="#535151" stroke-width="2"/>
<circle opacity="0.4" cx="843.5" cy="292.5" r="5.5" stroke="#535151" stroke-width="2"/>
<circle opacity="0.4" cx="1461.5" cy="233.5" r="5.5" stroke="#535151" stroke-width="2"/>
<circle opacity="0.4" cx="1464.5" cy="305.5" r="5.5" stroke="#535151" stroke-width="2"/>
<circle cx="1128.5" cy="107.5" r="5.5" stroke="#535151" stroke-width="2"/>
<circle opacity="0.5" cx="654.5" cy="184.5" r="5.5" stroke="#535151" stroke-width="2"/>
<circle opacity="0.6" cx="1191.5" cy="217.5" r="5.5" stroke="#535151" stroke-width="2"/>
<circle opacity="0.6" cx="717.5" cy="294.5" r="5.5" stroke="#535151" stroke-width="2"/>
<circle cx="1221.5" cy="20.5" r="5.5" stroke="#454444" stroke-width="2"/>
<circle cx="778.5" cy="30.5" r="5.5" stroke="#454444" stroke-width="2"/>
<circle opacity="0.5" cx="1324.5" cy="54.5" r="5.5" stroke="#454444" stroke-width="2"/>
<circle opacity="0.6" cx="881.5" cy="64.5" r="5.5" stroke="#454444" stroke-width="2"/>
<circle cx="1063.5" cy="251.5" r="5.5" stroke="#454444" stroke-width="2"/>
<circle opacity="0.5" cx="1342.5" cy="71.5" r="5.5" stroke="#454444" stroke-width="2"/>
<circle opacity="0.6" cx="899.5" cy="81.5" r="5.5" stroke="#454444" stroke-width="2"/>
<circle cx="1081.5" cy="268.5" r="5.5" stroke="#454444" stroke-width="2"/>
<circle opacity="0.8" cx="1358.5" cy="88.5" r="5.5" stroke="#454444" stroke-width="2"/>
<circle opacity="0.8" cx="915.5" cy="98.5" r="5.5" stroke="#454444" stroke-width="2"/>
<circle opacity="0.8" cx="1374.5" cy="104.5" r="5.5" stroke="#454444" stroke-width="2"/>
<circle opacity="0.8" cx="931.5" cy="114.5" r="5.5" stroke="#454444" stroke-width="2"/>
<circle opacity="0.4" cx="1248.5" cy="178.5" r="5.5" stroke="#454444" stroke-width="2"/>
<circle opacity="0.4" cx="774.5" cy="255.5" r="5.5" stroke="#454444" stroke-width="2"/>
<circle opacity="0.4" cx="1392.5" cy="196.5" r="5.5" stroke="#454444" stroke-width="2"/>
<circle opacity="0.4" cx="918.5" cy="273.5" r="5.5" stroke="#454444" stroke-width="2"/>
<circle cx="1059.5" cy="70.5" r="5.5" stroke="#454444" stroke-width="2"/>
<circle cx="585.5" cy="147.5" r="5.5" stroke="#454444" stroke-width="2"/>
<circle opacity="0.6" cx="1122.5" cy="180.5" r="5.5" stroke="#454444" stroke-width="2"/>
<circle opacity="0.6" cx="648.5" cy="257.5" r="5.5" stroke="#454444" stroke-width="2"/>
<circle opacity="0.6" cx="1246.5" cy="266.5" r="5.5" stroke="#454444" stroke-width="2"/>
<circle opacity="0.6" cx="1044.5" cy="162.5" r="5.5" stroke="#454444" stroke-width="2"/>
<circle opacity="0.6" cx="570.5" cy="239.5" r="5.5" stroke="#454444" stroke-width="2"/>
<circle cx="1356.5" cy="124.5" r="5.5" stroke="#454444" stroke-width="2"/>
<circle cx="882.5" cy="201.5" r="5.5" stroke="#454444" stroke-width="2"/>
<circle cx="1273.5" cy="20.5" r="5.5" stroke="#454444" stroke-width="2"/>
<circle cx="830.5" cy="30.5" r="5.5" stroke="#454444" stroke-width="2"/>
<circle opacity="0.8" cx="1376.5" cy="54.5" r="5.5" stroke="#454444" stroke-width="2"/>
<circle opacity="0.6" cx="933.5" cy="64.5" r="5.5" stroke="#454444" stroke-width="2"/>
<circle opacity="0.8" cx="1115.5" cy="251.5" r="5.5" stroke="#454444" stroke-width="2"/>
<circle cx="1250.5" cy="128.5" r="5.5" stroke="#454444" stroke-width="2"/>
<circle cx="776.5" cy="205.5" r="5.5" stroke="#454444" stroke-width="2"/>
<circle cx="1061.5" cy="20.5" r="5.5" stroke="#454444" stroke-width="2"/>
<circle cx="587.5" cy="97.5" r="5.5" stroke="#454444" stroke-width="2"/>
<circle opacity="0.6" cx="1124.5" cy="130.5" r="5.5" stroke="#454444" stroke-width="2"/>
<circle opacity="0.6" cx="650.5" cy="207.5" r="5.5" stroke="#454444" stroke-width="2"/>
<circle opacity="0.8" cx="1394.5" cy="71.5" r="5.5" stroke="#454444" stroke-width="2"/>
<circle opacity="0.6" cx="951.5" cy="81.5" r="5.5" stroke="#454444" stroke-width="2"/>
<circle opacity="0.8" cx="1133.5" cy="268.5" r="5.5" stroke="#454444" stroke-width="2"/>
<circle cx="1268.5" cy="145.5" r="5.5" stroke="#454444" stroke-width="2"/>
<circle cx="794.5" cy="222.5" r="5.5" stroke="#454444" stroke-width="2"/>
<circle cx="1079.5" cy="37.5" r="5.5" stroke="#454444" stroke-width="2"/>
<circle cx="605.5" cy="114.5" r="5.5" stroke="#454444" stroke-width="2"/>
<circle opacity="0.6" cx="1142.5" cy="147.5" r="5.5" stroke="#454444" stroke-width="2"/>
<circle opacity="0.6" cx="668.5" cy="224.5" r="5.5" stroke="#454444" stroke-width="2"/>
<circle opacity="0.6" cx="1266.5" cy="233.5" r="5.5" stroke="#454444" stroke-width="2"/>
<circle opacity="0.6" cx="1064.5" cy="129.5" r="5.5" stroke="#454444" stroke-width="2"/>
<circle opacity="0.6" cx="590.5" cy="206.5" r="5.5" stroke="#454444" stroke-width="2"/>
<circle opacity="0.8" cx="1410.5" cy="88.5" r="5.5" stroke="#454444" stroke-width="2"/>
<circle opacity="0.8" cx="967.5" cy="98.5" r="5.5" stroke="#454444" stroke-width="2"/>
<circle cx="1284.5" cy="162.5" r="5.5" stroke="#454444" stroke-width="2"/>
<circle cx="810.5" cy="239.5" r="5.5" stroke="#454444" stroke-width="2"/>
<circle cx="1095.5" cy="54.5" r="5.5" stroke="#454444" stroke-width="2"/>
<circle cx="621.5" cy="131.5" r="5.5" stroke="#454444" stroke-width="2"/>
<circle opacity="0.6" cx="1158.5" cy="164.5" r="5.5" stroke="#454444" stroke-width="2"/>
<circle opacity="0.6" cx="684.5" cy="241.5" r="5.5" stroke="#454444" stroke-width="2"/>
<circle opacity="0.6" cx="1282.5" cy="250.5" r="5.5" stroke="#454444" stroke-width="2"/>
<circle opacity="0.6" cx="1080.5" cy="146.5" r="5.5" stroke="#454444" stroke-width="2"/>
<circle opacity="0.6" cx="606.5" cy="223.5" r="5.5" stroke="#454444" stroke-width="2"/>
<circle opacity="0.8" cx="1426.5" cy="104.5" r="5.5" stroke="#454444" stroke-width="2"/>
<circle opacity="0.8" cx="983.5" cy="114.5" r="5.5" stroke="#454444" stroke-width="2"/>
<circle opacity="0.4" cx="1300.5" cy="178.5" r="5.5" stroke="#454444" stroke-width="2"/>
<circle opacity="0.4" cx="826.5" cy="255.5" r="5.5" stroke="#454444" stroke-width="2"/>
<circle opacity="0.4" cx="1444.5" cy="196.5" r="5.5" stroke="#454444" stroke-width="2"/>
<circle opacity="0.4" cx="970.5" cy="273.5" r="5.5" stroke="#454444" stroke-width="2"/>
<circle cx="1111.5" cy="70.5" r="5.5" stroke="#454444" stroke-width="2"/>
<circle opacity="0.5" cx="637.5" cy="147.5" r="5.5" stroke="#454444" stroke-width="2"/>
<circle opacity="0.6" cx="1174.5" cy="180.5" r="5.5" stroke="#454444" stroke-width="2"/>
<circle opacity="0.6" cx="700.5" cy="257.5" r="5.5" stroke="#454444" stroke-width="2"/>
<circle opacity="0.6" cx="1298.5" cy="266.5" r="5.5" stroke="#454444" stroke-width="2"/>
<circle opacity="0.6" cx="1096.5" cy="162.5" r="5.5" stroke="#454444" stroke-width="2"/>
<circle opacity="0.6" cx="622.5" cy="239.5" r="5.5" stroke="#454444" stroke-width="2"/>
<circle opacity="0.8" cx="1408.5" cy="124.5" r="5.5" stroke="#454444" stroke-width="2"/>
<circle opacity="0.8" cx="934.5" cy="201.5" r="5.5" stroke="#454444" stroke-width="2"/>
<circle opacity="0.4" cx="1282.5" cy="198.5" r="5.5" stroke="#454444" stroke-width="2"/>
<circle opacity="0.4" cx="808.5" cy="275.5" r="5.5" stroke="#454444" stroke-width="2"/>
<circle opacity="0.4" cx="1426.5" cy="216.5" r="5.5" stroke="#454444" stroke-width="2"/>
<circle opacity="0.4" cx="952.5" cy="293.5" r="5.5" stroke="#454444" stroke-width="2"/>
<circle opacity="0.4" cx="1429.5" cy="288.5" r="5.5" stroke="#454444" stroke-width="2"/>
<circle cx="1093.5" cy="90.5" r="5.5" stroke="#454444" stroke-width="2"/>
<circle cx="619.5" cy="167.5" r="5.5" stroke="#454444" stroke-width="2"/>
<circle opacity="0.6" cx="1156.5" cy="200.5" r="5.5" stroke="#454444" stroke-width="2"/>
<circle opacity="0.6" cx="682.5" cy="277.5" r="5.5" stroke="#454444" stroke-width="2"/>
<circle opacity="0.6" cx="1280.5" cy="286.5" r="5.5" stroke="#454444" stroke-width="2"/>
<circle opacity="0.6" cx="1078.5" cy="182.5" r="5.5" stroke="#454444" stroke-width="2"/>
<circle opacity="0.6" cx="604.5" cy="259.5" r="5.5" stroke="#454444" stroke-width="2"/>
<circle opacity="0.5" cx="1325.5" cy="20.5" r="5.5" stroke="#454444" stroke-width="2"/>
<circle opacity="0.6" cx="882.5" cy="30.5" r="5.5" stroke="#454444" stroke-width="2"/>
<circle cx="1064.5" cy="217.5" r="5.5" stroke="#454444" stroke-width="2"/>
<circle cx="590.5" cy="294.5" r="5.5" stroke="#454444" stroke-width="2"/>
<circle opacity="0.8" cx="1428.5" cy="54.5" r="5.5" stroke="#454444" stroke-width="2"/>
<circle opacity="0.8" cx="985.5" cy="64.5" r="5.5" stroke="#454444" stroke-width="2"/>
<circle cx="1302.5" cy="128.5" r="5.5" stroke="#454444" stroke-width="2"/>
<circle cx="828.5" cy="205.5" r="5.5" stroke="#454444" stroke-width="2"/>
<circle cx="1113.5" cy="20.5" r="5.5" stroke="#454444" stroke-width="2"/>
<circle opacity="0.5" cx="639.5" cy="97.5" r="5.5" stroke="#454444" stroke-width="2"/>
<circle opacity="0.6" cx="1176.5" cy="130.5" r="5.5" stroke="#454444" stroke-width="2"/>
<circle opacity="0.6" cx="702.5" cy="207.5" r="5.5" stroke="#454444" stroke-width="2"/>
<circle opacity="0.8" cx="1446.5" cy="71.5" r="5.5" stroke="#454444" stroke-width="2"/>
<circle opacity="0.8" cx="1003.5" cy="81.5" r="5.5" stroke="#454444" stroke-width="2"/>
<circle cx="1320.5" cy="145.5" r="5.5" stroke="#454444" stroke-width="2"/>
<circle cx="846.5" cy="222.5" r="5.5" stroke="#454444" stroke-width="2"/>
<circle cx="1131.5" cy="37.5" r="5.5" stroke="#454444" stroke-width="2"/>
<circle opacity="0.5" cx="657.5" cy="114.5" r="5.5" stroke="#454444" stroke-width="2"/>
<circle opacity="0.6" cx="1194.5" cy="147.5" r="5.5" stroke="#454444" stroke-width="2"/>
<circle opacity="0.6" cx="720.5" cy="224.5" r="5.5" stroke="#454444" stroke-width="2"/>
<circle opacity="0.8" cx="1462.5" cy="88.5" r="5.5" stroke="#454444" stroke-width="2"/>
<circle cx="1336.5" cy="162.5" r="5.5" stroke="#454444" stroke-width="2"/>
<circle cx="862.5" cy="239.5" r="5.5" stroke="#454444" stroke-width="2"/>
<circle cx="1147.5" cy="54.5" r="5.5" stroke="#454444" stroke-width="2"/>
<circle opacity="0.5" cx="673.5" cy="131.5" r="5.5" stroke="#454444" stroke-width="2"/>
<circle opacity="0.6" cx="1210.5" cy="164.5" r="5.5" stroke="#454444" stroke-width="2"/>
<circle opacity="0.6" cx="736.5" cy="241.5" r="5.5" stroke="#454444" stroke-width="2"/>
<circle opacity="0.8" cx="1478.5" cy="104.5" r="5.5" stroke="#454444" stroke-width="2"/>
<circle opacity="0.4" cx="1352.5" cy="178.5" r="5.5" stroke="#454444" stroke-width="2"/>
<circle opacity="0.4" cx="878.5" cy="255.5" r="5.5" stroke="#454444" stroke-width="2"/>
<circle cx="1163.5" cy="70.5" r="5.5" stroke="#454444" stroke-width="2"/>
<circle cx="689.5" cy="147.5" r="5.5" stroke="#454444" stroke-width="2"/>
<circle opacity="0.6" cx="1226.5" cy="180.5" r="5.5" stroke="#454444" stroke-width="2"/>
<circle opacity="0.6" cx="752.5" cy="257.5" r="5.5" stroke="#454444" stroke-width="2"/>
<circle opacity="0.8" cx="1460.5" cy="124.5" r="5.5" stroke="#454444" stroke-width="2"/>
<circle opacity="0.8" cx="986.5" cy="201.5" r="5.5" stroke="#454444" stroke-width="2"/>
<circle opacity="0.4" cx="1334.5" cy="198.5" r="5.5" stroke="#454444" stroke-width="2"/>
<circle opacity="0.4" cx="860.5" cy="275.5" r="5.5" stroke="#454444" stroke-width="2"/>
<circle opacity="0.4" cx="1478.5" cy="216.5" r="5.5" stroke="#454444" stroke-width="2"/>
<circle opacity="0.4" cx="1481.5" cy="288.5" r="5.5" stroke="#454444" stroke-width="2"/>
<circle cx="1145.5" cy="90.5" r="5.5" stroke="#454444" stroke-width="2"/>
<circle opacity="0.5" cx="671.5" cy="167.5" r="5.5" stroke="#454444" stroke-width="2"/>
<circle opacity="0.6" cx="1208.5" cy="200.5" r="5.5" stroke="#454444" stroke-width="2"/>
<circle opacity="0.6" cx="734.5" cy="277.5" r="5.5" stroke="#454444" stroke-width="2"/>
<circle opacity="0.5" cx="1308.5" cy="37.5" r="5.5" stroke="#454444" stroke-width="2"/>
<circle opacity="0.6" cx="865.5" cy="47.5" r="5.5" stroke="#454444" stroke-width="2"/>
<circle opacity="0.8" cx="1361.5" cy="37.5" r="5.5" stroke="#454444" stroke-width="2"/>
<circle opacity="0.6" cx="918.5" cy="47.5" r="5.5" stroke="#454444" stroke-width="2"/>
<circle opacity="0.8" cx="1100.5" cy="234.5" r="5.5" stroke="#454444" stroke-width="2"/>
<circle cx="1205.5" cy="54.5" r="5.5" stroke="#454444" stroke-width="2"/>
<circle cx="762.5" cy="64.5" r="5.5" stroke="#454444" stroke-width="2"/>
<circle cx="1276.5" cy="91.5" r="5.5" stroke="#454444" stroke-width="2"/>
<circle cx="833.5" cy="101.5" r="5.5" stroke="#454444" stroke-width="2"/>
<circle cx="1258.5" cy="71.5" r="5.5" stroke="#454444" stroke-width="2"/>
<circle cx="815.5" cy="81.5" r="5.5" stroke="#454444" stroke-width="2"/>
<circle cx="1274.5" cy="108.5" r="5.5" stroke="#454444" stroke-width="2"/>
<circle cx="831.5" cy="118.5" r="5.5" stroke="#454444" stroke-width="2"/>
<circle cx="1210.5" cy="91.5" r="5.5" stroke="#454444" stroke-width="2"/>
<circle cx="767.5" cy="101.5" r="5.5" stroke="#454444" stroke-width="2"/>
<circle opacity="0.8" cx="1358.5" cy="141.5" r="5.5" stroke="#454444" stroke-width="2"/>
<circle opacity="0.8" cx="884.5" cy="218.5" r="5.5" stroke="#454444" stroke-width="2"/>
<circle opacity="0.8" cx="1427.5" cy="141.5" r="5.5" stroke="#454444" stroke-width="2"/>
<circle opacity="0.8" cx="953.5" cy="218.5" r="5.5" stroke="#454444" stroke-width="2"/>
<circle opacity="0.4" cx="1301.5" cy="215.5" r="5.5" stroke="#454444" stroke-width="2"/>
<circle opacity="0.4" cx="827.5" cy="292.5" r="5.5" stroke="#454444" stroke-width="2"/>
<circle opacity="0.4" cx="1445.5" cy="233.5" r="5.5" stroke="#454444" stroke-width="2"/>
<circle opacity="0.4" cx="1448.5" cy="305.5" r="5.5" stroke="#454444" stroke-width="2"/>
<circle cx="1112.5" cy="107.5" r="5.5" stroke="#454444" stroke-width="2"/>
<circle opacity="0.5" cx="638.5" cy="184.5" r="5.5" stroke="#454444" stroke-width="2"/>
<circle opacity="0.6" cx="1175.5" cy="217.5" r="5.5" stroke="#454444" stroke-width="2"/>
<circle opacity="0.6" cx="701.5" cy="294.5" r="5.5" stroke="#454444" stroke-width="2"/>
<circle opacity="0.6" cx="1299.5" cy="303.5" r="5.5" stroke="#454444" stroke-width="2"/>
<circle opacity="0.6" cx="1097.5" cy="199.5" r="5.5" stroke="#454444" stroke-width="2"/>
<circle opacity="0.6" cx="623.5" cy="276.5" r="5.5" stroke="#454444" stroke-width="2"/>
<circle cx="1237.5" cy="54.5" r="5.5" stroke="#454444" stroke-width="2"/>
<circle cx="794.5" cy="64.5" r="5.5" stroke="#454444" stroke-width="2"/>
<circle cx="1308.5" cy="91.5" r="5.5" stroke="#454444" stroke-width="2"/>
<circle cx="865.5" cy="101.5" r="5.5" stroke="#454444" stroke-width="2"/>
<circle cx="1290.5" cy="71.5" r="5.5" stroke="#454444" stroke-width="2"/>
<circle cx="847.5" cy="81.5" r="5.5" stroke="#454444" stroke-width="2"/>
<circle cx="1306.5" cy="108.5" r="5.5" stroke="#454444" stroke-width="2"/>
<circle cx="863.5" cy="118.5" r="5.5" stroke="#454444" stroke-width="2"/>
<circle cx="1242.5" cy="91.5" r="5.5" stroke="#454444" stroke-width="2"/>
<circle cx="799.5" cy="101.5" r="5.5" stroke="#454444" stroke-width="2"/>
<circle opacity="0.8" cx="1390.5" cy="141.5" r="5.5" stroke="#454444" stroke-width="2"/>
<circle opacity="0.8" cx="916.5" cy="218.5" r="5.5" stroke="#454444" stroke-width="2"/>
<circle opacity="0.4" cx="1264.5" cy="215.5" r="5.5" stroke="#454444" stroke-width="2"/>
<circle opacity="0.4" cx="790.5" cy="292.5" r="5.5" stroke="#454444" stroke-width="2"/>
<circle opacity="0.4" cx="1408.5" cy="233.5" r="5.5" stroke="#454444" stroke-width="2"/>
<circle opacity="0.4" cx="1411.5" cy="305.5" r="5.5" stroke="#454444" stroke-width="2"/>
<circle cx="1075.5" cy="107.5" r="5.5" stroke="#454444" stroke-width="2"/>
<circle cx="601.5" cy="184.5" r="5.5" stroke="#454444" stroke-width="2"/>
<circle opacity="0.6" cx="1138.5" cy="217.5" r="5.5" stroke="#454444" stroke-width="2"/>
<circle opacity="0.6" cx="664.5" cy="294.5" r="5.5" stroke="#454444" stroke-width="2"/>
<circle opacity="0.6" cx="1262.5" cy="303.5" r="5.5" stroke="#454444" stroke-width="2"/>
<circle opacity="0.6" cx="1060.5" cy="199.5" r="5.5" stroke="#454444" stroke-width="2"/>
<circle opacity="0.6" cx="586.5" cy="276.5" r="5.5" stroke="#454444" stroke-width="2"/>
<circle opacity="0.8" cx="1459.5" cy="141.5" r="5.5" stroke="#454444" stroke-width="2"/>
<circle opacity="0.8" cx="985.5" cy="218.5" r="5.5" stroke="#454444" stroke-width="2"/>
<circle opacity="0.4" cx="1333.5" cy="215.5" r="5.5" stroke="#454444" stroke-width="2"/>
<circle opacity="0.4" cx="859.5" cy="292.5" r="5.5" stroke="#454444" stroke-width="2"/>
<circle opacity="0.4" cx="1477.5" cy="233.5" r="5.5" stroke="#454444" stroke-width="2"/>
<circle opacity="0.4" cx="1480.5" cy="305.5" r="5.5" stroke="#454444" stroke-width="2"/>
<circle cx="1144.5" cy="107.5" r="5.5" stroke="#454444" stroke-width="2"/>
<circle opacity="0.5" cx="670.5" cy="184.5" r="5.5" stroke="#454444" stroke-width="2"/>
<circle opacity="0.6" cx="1207.5" cy="217.5" r="5.5" stroke="#454444" stroke-width="2"/>
<circle opacity="0.6" cx="733.5" cy="294.5" r="5.5" stroke="#454444" stroke-width="2"/>
<circle cx="1321.5" cy="104.5" r="5.5" stroke="#82AD7C" stroke-width="2"/>
<circle cx="878.5" cy="114.5" r="5.5" stroke="#82AD7C" stroke-width="2"/>
<circle opacity="0.8" cx="1212.5" cy="240.5" r="5.5" stroke="#82AD7C" stroke-width="2"/>
<circle opacity="0.5" cx="1370.5" cy="178.5" r="5.5" stroke="#82AD7C" stroke-width="2"/>
<circle opacity="0.8" cx="896.5" cy="255.5" r="5.5" stroke="#82AD7C" stroke-width="2"/>
<circle opacity="0.6" cx="1446.5" cy="54.5" r="5.5" stroke="#82AD7C" stroke-width="2"/>
<circle opacity="0.7" cx="1003.5" cy="64.5" r="5.5" stroke="#82AD7C" stroke-width="2"/>
<circle cx="763.5" cy="174.5" r="5.5" stroke="#82AD7C" stroke-width="2"/>
<circle cx="560.5" cy="114.5" r="5.5" stroke="#82AD7C" stroke-width="2"/>
</svg>
