<svg width="934" height="298" viewBox="0 0 934 298" fill="none" xmlns="http://www.w3.org/2000/svg">
<circle cx="649.5" cy="23.5" r="5.5" stroke="#82AD7C" stroke-width="2"/>
<circle cx="206.5" cy="33.5" r="5.5" stroke="#82AD7C" stroke-width="2"/>
<circle cx="633.5" cy="6.5" r="5.5" stroke="#646262" stroke-width="2"/>
<circle cx="159.5" cy="83.5" r="5.5" stroke="#646262" stroke-width="2"/>
<circle cx="736.5" cy="40.5" r="5.5" stroke="#646262" stroke-width="2"/>
<circle cx="293.5" cy="50.5" r="5.5" stroke="#646262" stroke-width="2"/>
<circle opacity="0.5" cx="754.5" cy="57.5" r="5.5" stroke="#646262" stroke-width="2"/>
<circle opacity="0.6" cx="311.5" cy="67.5" r="5.5" stroke="#646262" stroke-width="2"/>
<circle cx="770.5" cy="74.5" r="5.5" stroke="#646262" stroke-width="2"/>
<circle cx="327.5" cy="84.5" r="5.5" stroke="#646262" stroke-width="2"/>
<circle cx="786.5" cy="90.5" r="5.5" stroke="#646262" stroke-width="2"/>
<circle cx="343.5" cy="100.5" r="5.5" stroke="#646262" stroke-width="2"/>
<circle cx="768.5" cy="110.5" r="5.5" stroke="#646262" stroke-width="2"/>
<circle cx="294.5" cy="187.5" r="5.5" stroke="#646262" stroke-width="2"/>
<circle cx="685.5" cy="6.5" r="5.5" stroke="#646262" stroke-width="2"/>
<circle cx="242.5" cy="16.5" r="5.5" stroke="#646262" stroke-width="2"/>
<circle opacity="0.5" cx="788.5" cy="40.5" r="5.5" stroke="#646262" stroke-width="2"/>
<circle opacity="0.6" cx="345.5" cy="50.5" r="5.5" stroke="#646262" stroke-width="2"/>
<circle cx="527.5" cy="237.5" r="5.5" stroke="#646262" stroke-width="2"/>
<circle opacity="0.8" cx="806.5" cy="57.5" r="5.5" stroke="#646262" stroke-width="2"/>
<circle opacity="0.6" cx="363.5" cy="67.5" r="5.5" stroke="#646262" stroke-width="2"/>
<circle opacity="0.8" cx="545.5" cy="254.5" r="5.5" stroke="#646262" stroke-width="2"/>
<circle opacity="0.8" cx="822.5" cy="74.5" r="5.5" stroke="#646262" stroke-width="2"/>
<circle opacity="0.8" cx="379.5" cy="84.5" r="5.5" stroke="#646262" stroke-width="2"/>
<circle cx="696.5" cy="148.5" r="5.5" stroke="#646262" stroke-width="2"/>
<circle cx="222.5" cy="225.5" r="5.5" stroke="#646262" stroke-width="2"/>
<circle cx="507.5" cy="40.5" r="5.5" stroke="#646262" stroke-width="2"/>
<circle cx="33.5" cy="117.5" r="5.5" stroke="#646262" stroke-width="2"/>
<circle opacity="0.6" cx="570.5" cy="150.5" r="5.5" stroke="#646262" stroke-width="2"/>
<circle opacity="0.6" cx="96.5" cy="227.5" r="5.5" stroke="#646262" stroke-width="2"/>
<circle opacity="0.6" cx="694.5" cy="236.5" r="5.5" stroke="#646262" stroke-width="2"/>
<circle opacity="0.6" cx="492.5" cy="132.5" r="5.5" stroke="#646262" stroke-width="2"/>
<circle opacity="0.6" cx="18.5" cy="209.5" r="5.5" stroke="#646262" stroke-width="2"/>
<circle opacity="0.8" cx="838.5" cy="90.5" r="5.5" stroke="#646262" stroke-width="2"/>
<circle opacity="0.8" cx="395.5" cy="100.5" r="5.5" stroke="#646262" stroke-width="2"/>
<circle opacity="0.4" cx="712.5" cy="164.5" r="5.5" stroke="#646262" stroke-width="2"/>
<circle opacity="0.4" cx="238.5" cy="241.5" r="5.5" stroke="#646262" stroke-width="2"/>
<circle opacity="0.4" cx="856.5" cy="182.5" r="5.5" stroke="#646262" stroke-width="2"/>
<circle opacity="0.4" cx="382.5" cy="259.5" r="5.5" stroke="#646262" stroke-width="2"/>
<circle cx="523.5" cy="56.5" r="5.5" stroke="#646262" stroke-width="2"/>
<circle cx="49.5" cy="133.5" r="5.5" stroke="#646262" stroke-width="2"/>
<circle opacity="0.6" cx="586.5" cy="166.5" r="5.5" stroke="#646262" stroke-width="2"/>
<circle opacity="0.6" cx="112.5" cy="243.5" r="5.5" stroke="#646262" stroke-width="2"/>
<circle opacity="0.6" cx="710.5" cy="252.5" r="5.5" stroke="#646262" stroke-width="2"/>
<circle opacity="0.6" cx="508.5" cy="148.5" r="5.5" stroke="#646262" stroke-width="2"/>
<circle opacity="0.6" cx="34.5" cy="225.5" r="5.5" stroke="#646262" stroke-width="2"/>
<circle opacity="0.8" cx="820.5" cy="110.5" r="5.5" stroke="#646262" stroke-width="2"/>
<circle opacity="0.8" cx="346.5" cy="187.5" r="5.5" stroke="#646262" stroke-width="2"/>
<circle opacity="0.4" cx="694.5" cy="184.5" r="5.5" stroke="#646262" stroke-width="2"/>
<circle opacity="0.4" cx="220.5" cy="261.5" r="5.5" stroke="#646262" stroke-width="2"/>
<circle opacity="0.4" cx="838.5" cy="202.5" r="5.5" stroke="#646262" stroke-width="2"/>
<circle opacity="0.4" cx="364.5" cy="279.5" r="5.5" stroke="#646262" stroke-width="2"/>
<circle opacity="0.4" cx="841.5" cy="274.5" r="5.5" stroke="#646262" stroke-width="2"/>
<circle cx="505.5" cy="76.5" r="5.5" stroke="#646262" stroke-width="2"/>
<circle cx="31.5" cy="153.5" r="5.5" stroke="#646262" stroke-width="2"/>
<circle opacity="0.6" cx="568.5" cy="186.5" r="5.5" stroke="#646262" stroke-width="2"/>
<circle opacity="0.6" cx="94.5" cy="263.5" r="5.5" stroke="#646262" stroke-width="2"/>
<circle opacity="0.6" cx="692.5" cy="272.5" r="5.5" stroke="#646262" stroke-width="2"/>
<circle opacity="0.6" cx="490.5" cy="168.5" r="5.5" stroke="#646262" stroke-width="2"/>
<circle opacity="0.6" cx="16.5" cy="245.5" r="5.5" stroke="#646262" stroke-width="2"/>
<circle cx="737.5" cy="6.5" r="5.5" stroke="#646262" stroke-width="2"/>
<circle cx="294.5" cy="16.5" r="5.5" stroke="#646262" stroke-width="2"/>
<circle opacity="0.8" cx="840.5" cy="40.5" r="5.5" stroke="#646262" stroke-width="2"/>
<circle opacity="0.6" cx="397.5" cy="50.5" r="5.5" stroke="#646262" stroke-width="2"/>
<circle opacity="0.8" cx="579.5" cy="237.5" r="5.5" stroke="#646262" stroke-width="2"/>
<circle cx="714.5" cy="114.5" r="5.5" stroke="#646262" stroke-width="2"/>
<circle cx="240.5" cy="191.5" r="5.5" stroke="#646262" stroke-width="2"/>
<circle cx="525.5" cy="6.5" r="5.5" stroke="#646262" stroke-width="2"/>
<circle cx="51.5" cy="83.5" r="5.5" stroke="#646262" stroke-width="2"/>
<circle opacity="0.6" cx="588.5" cy="116.5" r="5.5" stroke="#646262" stroke-width="2"/>
<circle opacity="0.6" cx="114.5" cy="193.5" r="5.5" stroke="#646262" stroke-width="2"/>
<circle opacity="0.8" cx="858.5" cy="57.5" r="5.5" stroke="#646262" stroke-width="2"/>
<circle opacity="0.8" cx="415.5" cy="67.5" r="5.5" stroke="#646262" stroke-width="2"/>
<circle opacity="0.8" cx="597.5" cy="254.5" r="5.5" stroke="#646262" stroke-width="2"/>
<circle cx="732.5" cy="131.5" r="5.5" stroke="#646262" stroke-width="2"/>
<circle cx="258.5" cy="208.5" r="5.5" stroke="#646262" stroke-width="2"/>
<circle cx="543.5" cy="23.5" r="5.5" stroke="#646262" stroke-width="2"/>
<circle cx="69.5" cy="100.5" r="5.5" stroke="#646262" stroke-width="2"/>
<circle opacity="0.6" cx="606.5" cy="133.5" r="5.5" stroke="#646262" stroke-width="2"/>
<circle opacity="0.6" cx="132.5" cy="210.5" r="5.5" stroke="#646262" stroke-width="2"/>
<circle opacity="0.6" cx="730.5" cy="219.5" r="5.5" stroke="#646262" stroke-width="2"/>
<circle opacity="0.6" cx="528.5" cy="115.5" r="5.5" stroke="#646262" stroke-width="2"/>
<circle opacity="0.6" cx="54.5" cy="192.5" r="5.5" stroke="#646262" stroke-width="2"/>
<circle opacity="0.8" cx="874.5" cy="74.5" r="5.5" stroke="#646262" stroke-width="2"/>
<circle opacity="0.8" cx="431.5" cy="84.5" r="5.5" stroke="#646262" stroke-width="2"/>
<circle cx="748.5" cy="148.5" r="5.5" stroke="#646262" stroke-width="2"/>
<circle cx="274.5" cy="225.5" r="5.5" stroke="#646262" stroke-width="2"/>
<circle cx="559.5" cy="40.5" r="5.5" stroke="#646262" stroke-width="2"/>
<circle opacity="0.5" cx="85.5" cy="117.5" r="5.5" stroke="#646262" stroke-width="2"/>
<circle opacity="0.6" cx="622.5" cy="150.5" r="5.5" stroke="#646262" stroke-width="2"/>
<circle opacity="0.6" cx="148.5" cy="227.5" r="5.5" stroke="#646262" stroke-width="2"/>
<circle opacity="0.8" cx="890.5" cy="90.5" r="5.5" stroke="#646262" stroke-width="2"/>
<circle opacity="0.8" cx="447.5" cy="100.5" r="5.5" stroke="#646262" stroke-width="2"/>
<circle opacity="0.4" cx="764.5" cy="164.5" r="5.5" stroke="#646262" stroke-width="2"/>
<circle opacity="0.4" cx="290.5" cy="241.5" r="5.5" stroke="#646262" stroke-width="2"/>
<circle opacity="0.4" cx="908.5" cy="182.5" r="5.5" stroke="#646262" stroke-width="2"/>
<circle cx="575.5" cy="56.5" r="5.5" stroke="#646262" stroke-width="2"/>
<circle opacity="0.5" cx="101.5" cy="133.5" r="5.5" stroke="#646262" stroke-width="2"/>
<circle opacity="0.6" cx="638.5" cy="166.5" r="5.5" stroke="#646262" stroke-width="2"/>
<circle opacity="0.6" cx="164.5" cy="243.5" r="5.5" stroke="#646262" stroke-width="2"/>
<circle opacity="0.8" cx="872.5" cy="110.5" r="5.5" stroke="#646262" stroke-width="2"/>
<circle opacity="0.8" cx="398.5" cy="187.5" r="5.5" stroke="#646262" stroke-width="2"/>
<circle opacity="0.4" cx="746.5" cy="184.5" r="5.5" stroke="#646262" stroke-width="2"/>
<circle opacity="0.4" cx="272.5" cy="261.5" r="5.5" stroke="#646262" stroke-width="2"/>
<circle opacity="0.4" cx="890.5" cy="202.5" r="5.5" stroke="#646262" stroke-width="2"/>
<circle opacity="0.4" cx="416.5" cy="279.5" r="5.5" stroke="#646262" stroke-width="2"/>
<circle opacity="0.4" cx="893.5" cy="274.5" r="5.5" stroke="#646262" stroke-width="2"/>
<circle cx="557.5" cy="76.5" r="5.5" stroke="#646262" stroke-width="2"/>
<circle opacity="0.5" cx="83.5" cy="153.5" r="5.5" stroke="#646262" stroke-width="2"/>
<circle opacity="0.6" cx="620.5" cy="186.5" r="5.5" stroke="#646262" stroke-width="2"/>
<circle opacity="0.6" cx="146.5" cy="263.5" r="5.5" stroke="#646262" stroke-width="2"/>
<circle opacity="0.6" cx="744.5" cy="272.5" r="5.5" stroke="#646262" stroke-width="2"/>
<circle opacity="0.6" cx="542.5" cy="168.5" r="5.5" stroke="#646262" stroke-width="2"/>
<circle opacity="0.6" cx="68.5" cy="245.5" r="5.5" stroke="#646262" stroke-width="2"/>
<circle cx="720.5" cy="23.5" r="5.5" stroke="#646262" stroke-width="2"/>
<circle cx="277.5" cy="33.5" r="5.5" stroke="#646262" stroke-width="2"/>
<circle opacity="0.5" cx="773.5" cy="23.5" r="5.5" stroke="#646262" stroke-width="2"/>
<circle opacity="0.6" cx="330.5" cy="33.5" r="5.5" stroke="#646262" stroke-width="2"/>
<circle cx="512.5" cy="220.5" r="5.5" stroke="#646262" stroke-width="2"/>
<circle cx="649.5" cy="6.5" r="5.5" stroke="#535151" stroke-width="2"/>
<circle cx="206.5" cy="16.5" r="5.5" stroke="#535151" stroke-width="2"/>
<circle opacity="0.5" cx="752.5" cy="40.5" r="5.5" stroke="#535151" stroke-width="2"/>
<circle opacity="0.6" cx="309.5" cy="50.5" r="5.5" stroke="#535151" stroke-width="2"/>
<circle opacity="0.5" cx="770.5" cy="57.5" r="5.5" stroke="#535151" stroke-width="2"/>
<circle opacity="0.6" cx="327.5" cy="67.5" r="5.5" stroke="#535151" stroke-width="2"/>
<circle cx="509.5" cy="254.5" r="5.5" stroke="#535151" stroke-width="2"/>
<circle cx="786.5" cy="74.5" r="5.5" stroke="#535151" stroke-width="2"/>
<circle cx="343.5" cy="84.5" r="5.5" stroke="#535151" stroke-width="2"/>
<circle cx="802.5" cy="90.5" r="5.5" stroke="#535151" stroke-width="2"/>
<circle cx="359.5" cy="100.5" r="5.5" stroke="#535151" stroke-width="2"/>
<circle cx="784.5" cy="110.5" r="5.5" stroke="#535151" stroke-width="2"/>
<circle cx="310.5" cy="187.5" r="5.5" stroke="#535151" stroke-width="2"/>
<circle cx="701.5" cy="6.5" r="5.5" stroke="#535151" stroke-width="2"/>
<circle cx="258.5" cy="16.5" r="5.5" stroke="#535151" stroke-width="2"/>
<circle opacity="0.8" cx="804.5" cy="40.5" r="5.5" stroke="#535151" stroke-width="2"/>
<circle opacity="0.6" cx="361.5" cy="50.5" r="5.5" stroke="#535151" stroke-width="2"/>
<circle opacity="0.8" cx="543.5" cy="237.5" r="5.5" stroke="#535151" stroke-width="2"/>
<circle opacity="0.8" cx="822.5" cy="57.5" r="5.5" stroke="#535151" stroke-width="2"/>
<circle opacity="0.6" cx="379.5" cy="67.5" r="5.5" stroke="#535151" stroke-width="2"/>
<circle opacity="0.8" cx="561.5" cy="254.5" r="5.5" stroke="#535151" stroke-width="2"/>
<circle cx="696.5" cy="131.5" r="5.5" stroke="#535151" stroke-width="2"/>
<circle cx="222.5" cy="208.5" r="5.5" stroke="#535151" stroke-width="2"/>
<circle cx="507.5" cy="23.5" r="5.5" stroke="#535151" stroke-width="2"/>
<circle cx="33.5" cy="100.5" r="5.5" stroke="#535151" stroke-width="2"/>
<circle opacity="0.6" cx="570.5" cy="133.5" r="5.5" stroke="#535151" stroke-width="2"/>
<circle opacity="0.6" cx="96.5" cy="210.5" r="5.5" stroke="#535151" stroke-width="2"/>
<circle opacity="0.6" cx="694.5" cy="219.5" r="5.5" stroke="#535151" stroke-width="2"/>
<circle opacity="0.6" cx="492.5" cy="115.5" r="5.5" stroke="#535151" stroke-width="2"/>
<circle opacity="0.6" cx="18.5" cy="192.5" r="5.5" stroke="#535151" stroke-width="2"/>
<circle opacity="0.8" cx="838.5" cy="74.5" r="5.5" stroke="#535151" stroke-width="2"/>
<circle opacity="0.8" cx="395.5" cy="84.5" r="5.5" stroke="#535151" stroke-width="2"/>
<circle cx="712.5" cy="148.5" r="5.5" stroke="#535151" stroke-width="2"/>
<circle cx="238.5" cy="225.5" r="5.5" stroke="#535151" stroke-width="2"/>
<circle cx="523.5" cy="40.5" r="5.5" stroke="#535151" stroke-width="2"/>
<circle cx="49.5" cy="117.5" r="5.5" stroke="#535151" stroke-width="2"/>
<circle opacity="0.6" cx="586.5" cy="150.5" r="5.5" stroke="#535151" stroke-width="2"/>
<circle opacity="0.6" cx="112.5" cy="227.5" r="5.5" stroke="#535151" stroke-width="2"/>
<circle opacity="0.6" cx="710.5" cy="236.5" r="5.5" stroke="#535151" stroke-width="2"/>
<circle opacity="0.6" cx="508.5" cy="132.5" r="5.5" stroke="#535151" stroke-width="2"/>
<circle opacity="0.6" cx="34.5" cy="209.5" r="5.5" stroke="#535151" stroke-width="2"/>
<circle opacity="0.8" cx="854.5" cy="90.5" r="5.5" stroke="#535151" stroke-width="2"/>
<circle opacity="0.8" cx="411.5" cy="100.5" r="5.5" stroke="#535151" stroke-width="2"/>
<circle opacity="0.4" cx="728.5" cy="164.5" r="5.5" stroke="#535151" stroke-width="2"/>
<circle opacity="0.4" cx="254.5" cy="241.5" r="5.5" stroke="#535151" stroke-width="2"/>
<circle opacity="0.4" cx="872.5" cy="182.5" r="5.5" stroke="#535151" stroke-width="2"/>
<circle opacity="0.4" cx="398.5" cy="259.5" r="5.5" stroke="#535151" stroke-width="2"/>
<circle cx="539.5" cy="56.5" r="5.5" stroke="#535151" stroke-width="2"/>
<circle cx="65.5" cy="133.5" r="5.5" stroke="#535151" stroke-width="2"/>
<circle opacity="0.6" cx="602.5" cy="166.5" r="5.5" stroke="#535151" stroke-width="2"/>
<circle opacity="0.6" cx="128.5" cy="243.5" r="5.5" stroke="#535151" stroke-width="2"/>
<circle opacity="0.6" cx="726.5" cy="252.5" r="5.5" stroke="#535151" stroke-width="2"/>
<circle opacity="0.6" cx="524.5" cy="148.5" r="5.5" stroke="#535151" stroke-width="2"/>
<circle opacity="0.6" cx="50.5" cy="225.5" r="5.5" stroke="#535151" stroke-width="2"/>
<circle opacity="0.8" cx="836.5" cy="110.5" r="5.5" stroke="#535151" stroke-width="2"/>
<circle opacity="0.8" cx="362.5" cy="187.5" r="5.5" stroke="#535151" stroke-width="2"/>
<circle opacity="0.4" cx="710.5" cy="184.5" r="5.5" stroke="#535151" stroke-width="2"/>
<circle opacity="0.4" cx="236.5" cy="261.5" r="5.5" stroke="#535151" stroke-width="2"/>
<circle opacity="0.4" cx="854.5" cy="202.5" r="5.5" stroke="#535151" stroke-width="2"/>
<circle opacity="0.4" cx="380.5" cy="279.5" r="5.5" stroke="#535151" stroke-width="2"/>
<circle opacity="0.4" cx="857.5" cy="274.5" r="5.5" stroke="#535151" stroke-width="2"/>
<circle cx="521.5" cy="76.5" r="5.5" stroke="#535151" stroke-width="2"/>
<circle cx="47.5" cy="153.5" r="5.5" stroke="#535151" stroke-width="2"/>
<circle opacity="0.6" cx="584.5" cy="186.5" r="5.5" stroke="#535151" stroke-width="2"/>
<circle opacity="0.6" cx="110.5" cy="263.5" r="5.5" stroke="#535151" stroke-width="2"/>
<circle opacity="0.6" cx="708.5" cy="272.5" r="5.5" stroke="#535151" stroke-width="2"/>
<circle opacity="0.6" cx="506.5" cy="168.5" r="5.5" stroke="#535151" stroke-width="2"/>
<circle opacity="0.6" cx="32.5" cy="245.5" r="5.5" stroke="#535151" stroke-width="2"/>
<circle opacity="0.5" cx="753.5" cy="6.5" r="5.5" stroke="#535151" stroke-width="2"/>
<circle opacity="0.6" cx="310.5" cy="16.5" r="5.5" stroke="#535151" stroke-width="2"/>
<circle opacity="0.8" cx="856.5" cy="40.5" r="5.5" stroke="#535151" stroke-width="2"/>
<circle opacity="0.8" cx="413.5" cy="50.5" r="5.5" stroke="#535151" stroke-width="2"/>
<circle opacity="0.8" cx="595.5" cy="237.5" r="5.5" stroke="#535151" stroke-width="2"/>
<circle cx="730.5" cy="114.5" r="5.5" stroke="#535151" stroke-width="2"/>
<circle cx="256.5" cy="191.5" r="5.5" stroke="#535151" stroke-width="2"/>
<circle cx="541.5" cy="6.5" r="5.5" stroke="#535151" stroke-width="2"/>
<circle cx="67.5" cy="83.5" r="5.5" stroke="#535151" stroke-width="2"/>
<circle opacity="0.6" cx="604.5" cy="116.5" r="5.5" stroke="#535151" stroke-width="2"/>
<circle opacity="0.6" cx="130.5" cy="193.5" r="5.5" stroke="#535151" stroke-width="2"/>
<circle opacity="0.8" cx="874.5" cy="57.5" r="5.5" stroke="#535151" stroke-width="2"/>
<circle opacity="0.8" cx="431.5" cy="67.5" r="5.5" stroke="#535151" stroke-width="2"/>
<circle cx="748.5" cy="131.5" r="5.5" stroke="#535151" stroke-width="2"/>
<circle cx="274.5" cy="208.5" r="5.5" stroke="#535151" stroke-width="2"/>
<circle cx="559.5" cy="23.5" r="5.5" stroke="#535151" stroke-width="2"/>
<circle opacity="0.5" cx="85.5" cy="100.5" r="5.5" stroke="#535151" stroke-width="2"/>
<circle opacity="0.6" cx="622.5" cy="133.5" r="5.5" stroke="#535151" stroke-width="2"/>
<circle opacity="0.6" cx="148.5" cy="210.5" r="5.5" stroke="#535151" stroke-width="2"/>
<circle opacity="0.8" cx="890.5" cy="74.5" r="5.5" stroke="#535151" stroke-width="2"/>
<circle opacity="0.8" cx="447.5" cy="84.5" r="5.5" stroke="#535151" stroke-width="2"/>
<circle cx="764.5" cy="148.5" r="5.5" stroke="#535151" stroke-width="2"/>
<circle cx="290.5" cy="225.5" r="5.5" stroke="#535151" stroke-width="2"/>
<circle cx="575.5" cy="40.5" r="5.5" stroke="#535151" stroke-width="2"/>
<circle opacity="0.5" cx="101.5" cy="117.5" r="5.5" stroke="#535151" stroke-width="2"/>
<circle opacity="0.6" cx="638.5" cy="150.5" r="5.5" stroke="#535151" stroke-width="2"/>
<circle opacity="0.6" cx="164.5" cy="227.5" r="5.5" stroke="#535151" stroke-width="2"/>
<circle opacity="0.8" cx="906.5" cy="90.5" r="5.5" stroke="#535151" stroke-width="2"/>
<circle opacity="0.8" cx="463.5" cy="100.5" r="5.5" stroke="#535151" stroke-width="2"/>
<circle opacity="0.4" cx="780.5" cy="164.5" r="5.5" stroke="#535151" stroke-width="2"/>
<circle opacity="0.4" cx="306.5" cy="241.5" r="5.5" stroke="#535151" stroke-width="2"/>
<circle opacity="0.4" cx="924.5" cy="182.5" r="5.5" stroke="#535151" stroke-width="2"/>
<circle cx="591.5" cy="56.5" r="5.5" stroke="#535151" stroke-width="2"/>
<circle opacity="0.5" cx="117.5" cy="133.5" r="5.5" stroke="#535151" stroke-width="2"/>
<circle opacity="0.6" cx="654.5" cy="166.5" r="5.5" stroke="#535151" stroke-width="2"/>
<circle opacity="0.6" cx="180.5" cy="243.5" r="5.5" stroke="#535151" stroke-width="2"/>
<circle opacity="0.8" cx="888.5" cy="110.5" r="5.5" stroke="#535151" stroke-width="2"/>
<circle opacity="0.8" cx="414.5" cy="187.5" r="5.5" stroke="#535151" stroke-width="2"/>
<circle opacity="0.4" cx="762.5" cy="184.5" r="5.5" stroke="#535151" stroke-width="2"/>
<circle opacity="0.4" cx="288.5" cy="261.5" r="5.5" stroke="#535151" stroke-width="2"/>
<circle opacity="0.4" cx="906.5" cy="202.5" r="5.5" stroke="#535151" stroke-width="2"/>
<circle opacity="0.4" cx="432.5" cy="279.5" r="5.5" stroke="#535151" stroke-width="2"/>
<circle opacity="0.4" cx="909.5" cy="274.5" r="5.5" stroke="#535151" stroke-width="2"/>
<circle cx="573.5" cy="76.5" r="5.5" stroke="#535151" stroke-width="2"/>
<circle opacity="0.5" cx="99.5" cy="153.5" r="5.5" stroke="#535151" stroke-width="2"/>
<circle opacity="0.6" cx="636.5" cy="186.5" r="5.5" stroke="#535151" stroke-width="2"/>
<circle opacity="0.6" cx="162.5" cy="263.5" r="5.5" stroke="#535151" stroke-width="2"/>
<circle cx="736.5" cy="23.5" r="5.5" stroke="#535151" stroke-width="2"/>
<circle cx="293.5" cy="33.5" r="5.5" stroke="#535151" stroke-width="2"/>
<circle opacity="0.5" cx="789.5" cy="23.5" r="5.5" stroke="#535151" stroke-width="2"/>
<circle opacity="0.6" cx="346.5" cy="33.5" r="5.5" stroke="#535151" stroke-width="2"/>
<circle cx="528.5" cy="220.5" r="5.5" stroke="#535151" stroke-width="2"/>
<circle cx="633.5" cy="40.5" r="5.5" stroke="#535151" stroke-width="2"/>
<circle cx="159.5" cy="117.5" r="5.5" stroke="#535151" stroke-width="2"/>
<circle cx="704.5" cy="77.5" r="5.5" stroke="#535151" stroke-width="2"/>
<circle cx="261.5" cy="87.5" r="5.5" stroke="#535151" stroke-width="2"/>
<circle cx="686.5" cy="57.5" r="5.5" stroke="#535151" stroke-width="2"/>
<circle cx="243.5" cy="67.5" r="5.5" stroke="#535151" stroke-width="2"/>
<circle cx="702.5" cy="94.5" r="5.5" stroke="#535151" stroke-width="2"/>
<circle cx="259.5" cy="104.5" r="5.5" stroke="#535151" stroke-width="2"/>
<circle cx="638.5" cy="77.5" r="5.5" stroke="#535151" stroke-width="2"/>
<circle cx="195.5" cy="87.5" r="5.5" stroke="#535151" stroke-width="2"/>
<circle cx="786.5" cy="127.5" r="5.5" stroke="#535151" stroke-width="2"/>
<circle cx="312.5" cy="204.5" r="5.5" stroke="#535151" stroke-width="2"/>
<circle opacity="0.8" cx="855.5" cy="127.5" r="5.5" stroke="#535151" stroke-width="2"/>
<circle opacity="0.8" cx="381.5" cy="204.5" r="5.5" stroke="#535151" stroke-width="2"/>
<circle opacity="0.4" cx="729.5" cy="201.5" r="5.5" stroke="#535151" stroke-width="2"/>
<circle opacity="0.4" cx="255.5" cy="278.5" r="5.5" stroke="#535151" stroke-width="2"/>
<circle opacity="0.4" cx="873.5" cy="219.5" r="5.5" stroke="#535151" stroke-width="2"/>
<circle opacity="0.4" cx="876.5" cy="291.5" r="5.5" stroke="#535151" stroke-width="2"/>
<circle cx="540.5" cy="93.5" r="5.5" stroke="#535151" stroke-width="2"/>
<circle cx="66.5" cy="170.5" r="5.5" stroke="#535151" stroke-width="2"/>
<circle opacity="0.6" cx="603.5" cy="203.5" r="5.5" stroke="#535151" stroke-width="2"/>
<circle opacity="0.6" cx="129.5" cy="280.5" r="5.5" stroke="#535151" stroke-width="2"/>
<circle opacity="0.6" cx="727.5" cy="289.5" r="5.5" stroke="#535151" stroke-width="2"/>
<circle opacity="0.6" cx="525.5" cy="185.5" r="5.5" stroke="#535151" stroke-width="2"/>
<circle opacity="0.6" cx="51.5" cy="262.5" r="5.5" stroke="#535151" stroke-width="2"/>
<circle cx="667.5" cy="40.5" r="5.5" stroke="#535151" stroke-width="2"/>
<circle cx="224.5" cy="50.5" r="5.5" stroke="#535151" stroke-width="2"/>
<circle cx="738.5" cy="77.5" r="5.5" stroke="#535151" stroke-width="2"/>
<circle cx="295.5" cy="87.5" r="5.5" stroke="#535151" stroke-width="2"/>
<circle cx="720.5" cy="57.5" r="5.5" stroke="#535151" stroke-width="2"/>
<circle cx="277.5" cy="67.5" r="5.5" stroke="#535151" stroke-width="2"/>
<circle cx="736.5" cy="94.5" r="5.5" stroke="#535151" stroke-width="2"/>
<circle cx="293.5" cy="104.5" r="5.5" stroke="#535151" stroke-width="2"/>
<circle cx="672.5" cy="77.5" r="5.5" stroke="#535151" stroke-width="2"/>
<circle cx="229.5" cy="87.5" r="5.5" stroke="#535151" stroke-width="2"/>
<circle opacity="0.8" cx="820.5" cy="127.5" r="5.5" stroke="#535151" stroke-width="2"/>
<circle opacity="0.8" cx="346.5" cy="204.5" r="5.5" stroke="#535151" stroke-width="2"/>
<circle opacity="0.4" cx="694.5" cy="201.5" r="5.5" stroke="#535151" stroke-width="2"/>
<circle opacity="0.4" cx="220.5" cy="278.5" r="5.5" stroke="#535151" stroke-width="2"/>
<circle opacity="0.4" cx="838.5" cy="219.5" r="5.5" stroke="#535151" stroke-width="2"/>
<circle opacity="0.4" cx="841.5" cy="291.5" r="5.5" stroke="#535151" stroke-width="2"/>
<circle cx="505.5" cy="93.5" r="5.5" stroke="#535151" stroke-width="2"/>
<circle cx="31.5" cy="170.5" r="5.5" stroke="#535151" stroke-width="2"/>
<circle opacity="0.6" cx="568.5" cy="203.5" r="5.5" stroke="#535151" stroke-width="2"/>
<circle opacity="0.6" cx="94.5" cy="280.5" r="5.5" stroke="#535151" stroke-width="2"/>
<circle opacity="0.6" cx="692.5" cy="289.5" r="5.5" stroke="#535151" stroke-width="2"/>
<circle opacity="0.6" cx="490.5" cy="185.5" r="5.5" stroke="#535151" stroke-width="2"/>
<circle opacity="0.6" cx="16.5" cy="262.5" r="5.5" stroke="#535151" stroke-width="2"/>
<circle opacity="0.8" cx="889.5" cy="127.5" r="5.5" stroke="#535151" stroke-width="2"/>
<circle opacity="0.8" cx="415.5" cy="204.5" r="5.5" stroke="#535151" stroke-width="2"/>
<circle opacity="0.4" cx="763.5" cy="201.5" r="5.5" stroke="#535151" stroke-width="2"/>
<circle opacity="0.4" cx="289.5" cy="278.5" r="5.5" stroke="#535151" stroke-width="2"/>
<circle opacity="0.4" cx="907.5" cy="219.5" r="5.5" stroke="#535151" stroke-width="2"/>
<circle opacity="0.4" cx="910.5" cy="291.5" r="5.5" stroke="#535151" stroke-width="2"/>
<circle cx="574.5" cy="93.5" r="5.5" stroke="#535151" stroke-width="2"/>
<circle opacity="0.5" cx="100.5" cy="170.5" r="5.5" stroke="#535151" stroke-width="2"/>
<circle opacity="0.6" cx="637.5" cy="203.5" r="5.5" stroke="#535151" stroke-width="2"/>
<circle opacity="0.6" cx="163.5" cy="280.5" r="5.5" stroke="#535151" stroke-width="2"/>
<circle cx="667.5" cy="6.5" r="5.5" stroke="#454444" stroke-width="2"/>
<circle cx="224.5" cy="16.5" r="5.5" stroke="#454444" stroke-width="2"/>
<circle opacity="0.5" cx="770.5" cy="40.5" r="5.5" stroke="#454444" stroke-width="2"/>
<circle opacity="0.6" cx="327.5" cy="50.5" r="5.5" stroke="#454444" stroke-width="2"/>
<circle cx="509.5" cy="237.5" r="5.5" stroke="#454444" stroke-width="2"/>
<circle opacity="0.5" cx="788.5" cy="57.5" r="5.5" stroke="#454444" stroke-width="2"/>
<circle opacity="0.6" cx="345.5" cy="67.5" r="5.5" stroke="#454444" stroke-width="2"/>
<circle cx="527.5" cy="254.5" r="5.5" stroke="#454444" stroke-width="2"/>
<circle opacity="0.8" cx="804.5" cy="74.5" r="5.5" stroke="#454444" stroke-width="2"/>
<circle opacity="0.8" cx="361.5" cy="84.5" r="5.5" stroke="#454444" stroke-width="2"/>
<circle opacity="0.8" cx="820.5" cy="90.5" r="5.5" stroke="#454444" stroke-width="2"/>
<circle opacity="0.8" cx="377.5" cy="100.5" r="5.5" stroke="#454444" stroke-width="2"/>
<circle opacity="0.4" cx="694.5" cy="164.5" r="5.5" stroke="#454444" stroke-width="2"/>
<circle opacity="0.4" cx="220.5" cy="241.5" r="5.5" stroke="#454444" stroke-width="2"/>
<circle opacity="0.4" cx="838.5" cy="182.5" r="5.5" stroke="#454444" stroke-width="2"/>
<circle opacity="0.4" cx="364.5" cy="259.5" r="5.5" stroke="#454444" stroke-width="2"/>
<circle cx="505.5" cy="56.5" r="5.5" stroke="#454444" stroke-width="2"/>
<circle cx="31.5" cy="133.5" r="5.5" stroke="#454444" stroke-width="2"/>
<circle opacity="0.6" cx="568.5" cy="166.5" r="5.5" stroke="#454444" stroke-width="2"/>
<circle opacity="0.6" cx="94.5" cy="243.5" r="5.5" stroke="#454444" stroke-width="2"/>
<circle opacity="0.6" cx="692.5" cy="252.5" r="5.5" stroke="#454444" stroke-width="2"/>
<circle opacity="0.6" cx="490.5" cy="148.5" r="5.5" stroke="#454444" stroke-width="2"/>
<circle opacity="0.6" cx="16.5" cy="225.5" r="5.5" stroke="#454444" stroke-width="2"/>
<circle cx="802.5" cy="110.5" r="5.5" stroke="#454444" stroke-width="2"/>
<circle cx="328.5" cy="187.5" r="5.5" stroke="#454444" stroke-width="2"/>
<circle cx="719.5" cy="6.5" r="5.5" stroke="#454444" stroke-width="2"/>
<circle cx="276.5" cy="16.5" r="5.5" stroke="#454444" stroke-width="2"/>
<circle opacity="0.8" cx="822.5" cy="40.5" r="5.5" stroke="#454444" stroke-width="2"/>
<circle opacity="0.6" cx="379.5" cy="50.5" r="5.5" stroke="#454444" stroke-width="2"/>
<circle opacity="0.8" cx="561.5" cy="237.5" r="5.5" stroke="#454444" stroke-width="2"/>
<circle cx="696.5" cy="114.5" r="5.5" stroke="#454444" stroke-width="2"/>
<circle cx="222.5" cy="191.5" r="5.5" stroke="#454444" stroke-width="2"/>
<circle cx="507.5" cy="6.5" r="5.5" stroke="#454444" stroke-width="2"/>
<circle cx="33.5" cy="83.5" r="5.5" stroke="#454444" stroke-width="2"/>
<circle opacity="0.6" cx="570.5" cy="116.5" r="5.5" stroke="#454444" stroke-width="2"/>
<circle opacity="0.6" cx="96.5" cy="193.5" r="5.5" stroke="#454444" stroke-width="2"/>
<circle opacity="0.8" cx="840.5" cy="57.5" r="5.5" stroke="#454444" stroke-width="2"/>
<circle opacity="0.6" cx="397.5" cy="67.5" r="5.5" stroke="#454444" stroke-width="2"/>
<circle opacity="0.8" cx="579.5" cy="254.5" r="5.5" stroke="#454444" stroke-width="2"/>
<circle cx="714.5" cy="131.5" r="5.5" stroke="#454444" stroke-width="2"/>
<circle cx="240.5" cy="208.5" r="5.5" stroke="#454444" stroke-width="2"/>
<circle cx="525.5" cy="23.5" r="5.5" stroke="#454444" stroke-width="2"/>
<circle cx="51.5" cy="100.5" r="5.5" stroke="#454444" stroke-width="2"/>
<circle opacity="0.6" cx="588.5" cy="133.5" r="5.5" stroke="#454444" stroke-width="2"/>
<circle opacity="0.6" cx="114.5" cy="210.5" r="5.5" stroke="#454444" stroke-width="2"/>
<circle opacity="0.6" cx="712.5" cy="219.5" r="5.5" stroke="#454444" stroke-width="2"/>
<circle opacity="0.6" cx="510.5" cy="115.5" r="5.5" stroke="#454444" stroke-width="2"/>
<circle opacity="0.6" cx="36.5" cy="192.5" r="5.5" stroke="#454444" stroke-width="2"/>
<circle opacity="0.8" cx="856.5" cy="74.5" r="5.5" stroke="#454444" stroke-width="2"/>
<circle opacity="0.8" cx="413.5" cy="84.5" r="5.5" stroke="#454444" stroke-width="2"/>
<circle cx="730.5" cy="148.5" r="5.5" stroke="#454444" stroke-width="2"/>
<circle cx="256.5" cy="225.5" r="5.5" stroke="#454444" stroke-width="2"/>
<circle cx="541.5" cy="40.5" r="5.5" stroke="#454444" stroke-width="2"/>
<circle cx="67.5" cy="117.5" r="5.5" stroke="#454444" stroke-width="2"/>
<circle opacity="0.6" cx="604.5" cy="150.5" r="5.5" stroke="#454444" stroke-width="2"/>
<circle opacity="0.6" cx="130.5" cy="227.5" r="5.5" stroke="#454444" stroke-width="2"/>
<circle opacity="0.6" cx="728.5" cy="236.5" r="5.5" stroke="#454444" stroke-width="2"/>
<circle opacity="0.6" cx="526.5" cy="132.5" r="5.5" stroke="#454444" stroke-width="2"/>
<circle opacity="0.6" cx="52.5" cy="209.5" r="5.5" stroke="#454444" stroke-width="2"/>
<circle opacity="0.8" cx="872.5" cy="90.5" r="5.5" stroke="#454444" stroke-width="2"/>
<circle opacity="0.8" cx="429.5" cy="100.5" r="5.5" stroke="#454444" stroke-width="2"/>
<circle opacity="0.4" cx="746.5" cy="164.5" r="5.5" stroke="#454444" stroke-width="2"/>
<circle opacity="0.4" cx="272.5" cy="241.5" r="5.5" stroke="#454444" stroke-width="2"/>
<circle opacity="0.4" cx="890.5" cy="182.5" r="5.5" stroke="#454444" stroke-width="2"/>
<circle opacity="0.4" cx="416.5" cy="259.5" r="5.5" stroke="#454444" stroke-width="2"/>
<circle cx="557.5" cy="56.5" r="5.5" stroke="#454444" stroke-width="2"/>
<circle opacity="0.5" cx="83.5" cy="133.5" r="5.5" stroke="#454444" stroke-width="2"/>
<circle opacity="0.6" cx="620.5" cy="166.5" r="5.5" stroke="#454444" stroke-width="2"/>
<circle opacity="0.6" cx="146.5" cy="243.5" r="5.5" stroke="#454444" stroke-width="2"/>
<circle opacity="0.6" cx="744.5" cy="252.5" r="5.5" stroke="#454444" stroke-width="2"/>
<circle opacity="0.6" cx="542.5" cy="148.5" r="5.5" stroke="#454444" stroke-width="2"/>
<circle opacity="0.6" cx="68.5" cy="225.5" r="5.5" stroke="#454444" stroke-width="2"/>
<circle opacity="0.8" cx="854.5" cy="110.5" r="5.5" stroke="#454444" stroke-width="2"/>
<circle opacity="0.8" cx="380.5" cy="187.5" r="5.5" stroke="#454444" stroke-width="2"/>
<circle opacity="0.4" cx="728.5" cy="184.5" r="5.5" stroke="#454444" stroke-width="2"/>
<circle opacity="0.4" cx="254.5" cy="261.5" r="5.5" stroke="#454444" stroke-width="2"/>
<circle opacity="0.4" cx="872.5" cy="202.5" r="5.5" stroke="#454444" stroke-width="2"/>
<circle opacity="0.4" cx="398.5" cy="279.5" r="5.5" stroke="#454444" stroke-width="2"/>
<circle opacity="0.4" cx="875.5" cy="274.5" r="5.5" stroke="#454444" stroke-width="2"/>
<circle cx="539.5" cy="76.5" r="5.5" stroke="#454444" stroke-width="2"/>
<circle cx="65.5" cy="153.5" r="5.5" stroke="#454444" stroke-width="2"/>
<circle opacity="0.6" cx="602.5" cy="186.5" r="5.5" stroke="#454444" stroke-width="2"/>
<circle opacity="0.6" cx="128.5" cy="263.5" r="5.5" stroke="#454444" stroke-width="2"/>
<circle opacity="0.6" cx="726.5" cy="272.5" r="5.5" stroke="#454444" stroke-width="2"/>
<circle opacity="0.6" cx="524.5" cy="168.5" r="5.5" stroke="#454444" stroke-width="2"/>
<circle opacity="0.6" cx="50.5" cy="245.5" r="5.5" stroke="#454444" stroke-width="2"/>
<circle opacity="0.5" cx="771.5" cy="6.5" r="5.5" stroke="#454444" stroke-width="2"/>
<circle opacity="0.6" cx="328.5" cy="16.5" r="5.5" stroke="#454444" stroke-width="2"/>
<circle cx="510.5" cy="203.5" r="5.5" stroke="#454444" stroke-width="2"/>
<circle cx="36.5" cy="280.5" r="5.5" stroke="#454444" stroke-width="2"/>
<circle opacity="0.8" cx="874.5" cy="40.5" r="5.5" stroke="#454444" stroke-width="2"/>
<circle opacity="0.8" cx="431.5" cy="50.5" r="5.5" stroke="#454444" stroke-width="2"/>
<circle cx="748.5" cy="114.5" r="5.5" stroke="#454444" stroke-width="2"/>
<circle cx="274.5" cy="191.5" r="5.5" stroke="#454444" stroke-width="2"/>
<circle cx="559.5" cy="6.5" r="5.5" stroke="#454444" stroke-width="2"/>
<circle opacity="0.5" cx="85.5" cy="83.5" r="5.5" stroke="#454444" stroke-width="2"/>
<circle opacity="0.6" cx="622.5" cy="116.5" r="5.5" stroke="#454444" stroke-width="2"/>
<circle opacity="0.6" cx="148.5" cy="193.5" r="5.5" stroke="#454444" stroke-width="2"/>
<circle opacity="0.8" cx="892.5" cy="57.5" r="5.5" stroke="#454444" stroke-width="2"/>
<circle opacity="0.8" cx="449.5" cy="67.5" r="5.5" stroke="#454444" stroke-width="2"/>
<circle cx="766.5" cy="131.5" r="5.5" stroke="#454444" stroke-width="2"/>
<circle cx="292.5" cy="208.5" r="5.5" stroke="#454444" stroke-width="2"/>
<circle cx="577.5" cy="23.5" r="5.5" stroke="#454444" stroke-width="2"/>
<circle opacity="0.5" cx="103.5" cy="100.5" r="5.5" stroke="#454444" stroke-width="2"/>
<circle opacity="0.6" cx="640.5" cy="133.5" r="5.5" stroke="#454444" stroke-width="2"/>
<circle opacity="0.6" cx="166.5" cy="210.5" r="5.5" stroke="#454444" stroke-width="2"/>
<circle opacity="0.8" cx="908.5" cy="74.5" r="5.5" stroke="#454444" stroke-width="2"/>
<circle cx="782.5" cy="148.5" r="5.5" stroke="#454444" stroke-width="2"/>
<circle cx="308.5" cy="225.5" r="5.5" stroke="#454444" stroke-width="2"/>
<circle cx="593.5" cy="40.5" r="5.5" stroke="#454444" stroke-width="2"/>
<circle opacity="0.5" cx="119.5" cy="117.5" r="5.5" stroke="#454444" stroke-width="2"/>
<circle opacity="0.6" cx="656.5" cy="150.5" r="5.5" stroke="#454444" stroke-width="2"/>
<circle opacity="0.6" cx="182.5" cy="227.5" r="5.5" stroke="#454444" stroke-width="2"/>
<circle opacity="0.8" cx="924.5" cy="90.5" r="5.5" stroke="#454444" stroke-width="2"/>
<circle opacity="0.4" cx="798.5" cy="164.5" r="5.5" stroke="#454444" stroke-width="2"/>
<circle opacity="0.4" cx="324.5" cy="241.5" r="5.5" stroke="#454444" stroke-width="2"/>
<circle cx="609.5" cy="56.5" r="5.5" stroke="#454444" stroke-width="2"/>
<circle cx="135.5" cy="133.5" r="5.5" stroke="#454444" stroke-width="2"/>
<circle opacity="0.6" cx="672.5" cy="166.5" r="5.5" stroke="#454444" stroke-width="2"/>
<circle opacity="0.6" cx="198.5" cy="243.5" r="5.5" stroke="#454444" stroke-width="2"/>
<circle opacity="0.8" cx="906.5" cy="110.5" r="5.5" stroke="#454444" stroke-width="2"/>
<circle opacity="0.8" cx="432.5" cy="187.5" r="5.5" stroke="#454444" stroke-width="2"/>
<circle opacity="0.4" cx="780.5" cy="184.5" r="5.5" stroke="#454444" stroke-width="2"/>
<circle opacity="0.4" cx="306.5" cy="261.5" r="5.5" stroke="#454444" stroke-width="2"/>
<circle opacity="0.4" cx="924.5" cy="202.5" r="5.5" stroke="#454444" stroke-width="2"/>
<circle opacity="0.4" cx="927.5" cy="274.5" r="5.5" stroke="#454444" stroke-width="2"/>
<circle cx="591.5" cy="76.5" r="5.5" stroke="#454444" stroke-width="2"/>
<circle opacity="0.5" cx="117.5" cy="153.5" r="5.5" stroke="#454444" stroke-width="2"/>
<circle opacity="0.6" cx="654.5" cy="186.5" r="5.5" stroke="#454444" stroke-width="2"/>
<circle opacity="0.6" cx="180.5" cy="263.5" r="5.5" stroke="#454444" stroke-width="2"/>
<circle opacity="0.5" cx="754.5" cy="23.5" r="5.5" stroke="#454444" stroke-width="2"/>
<circle opacity="0.6" cx="311.5" cy="33.5" r="5.5" stroke="#454444" stroke-width="2"/>
<circle opacity="0.8" cx="807.5" cy="23.5" r="5.5" stroke="#454444" stroke-width="2"/>
<circle opacity="0.6" cx="364.5" cy="33.5" r="5.5" stroke="#454444" stroke-width="2"/>
<circle opacity="0.8" cx="546.5" cy="220.5" r="5.5" stroke="#454444" stroke-width="2"/>
<circle cx="651.5" cy="40.5" r="5.5" stroke="#454444" stroke-width="2"/>
<circle cx="208.5" cy="50.5" r="5.5" stroke="#454444" stroke-width="2"/>
<circle cx="722.5" cy="77.5" r="5.5" stroke="#454444" stroke-width="2"/>
<circle cx="279.5" cy="87.5" r="5.5" stroke="#454444" stroke-width="2"/>
<circle cx="704.5" cy="57.5" r="5.5" stroke="#454444" stroke-width="2"/>
<circle cx="261.5" cy="67.5" r="5.5" stroke="#454444" stroke-width="2"/>
<circle cx="720.5" cy="94.5" r="5.5" stroke="#454444" stroke-width="2"/>
<circle cx="277.5" cy="104.5" r="5.5" stroke="#454444" stroke-width="2"/>
<circle cx="656.5" cy="77.5" r="5.5" stroke="#454444" stroke-width="2"/>
<circle cx="213.5" cy="87.5" r="5.5" stroke="#454444" stroke-width="2"/>
<circle opacity="0.8" cx="804.5" cy="127.5" r="5.5" stroke="#454444" stroke-width="2"/>
<circle opacity="0.8" cx="330.5" cy="204.5" r="5.5" stroke="#454444" stroke-width="2"/>
<circle opacity="0.8" cx="873.5" cy="127.5" r="5.5" stroke="#454444" stroke-width="2"/>
<circle opacity="0.8" cx="399.5" cy="204.5" r="5.5" stroke="#454444" stroke-width="2"/>
<circle opacity="0.4" cx="747.5" cy="201.5" r="5.5" stroke="#454444" stroke-width="2"/>
<circle opacity="0.4" cx="273.5" cy="278.5" r="5.5" stroke="#454444" stroke-width="2"/>
<circle opacity="0.4" cx="891.5" cy="219.5" r="5.5" stroke="#454444" stroke-width="2"/>
<circle opacity="0.4" cx="894.5" cy="291.5" r="5.5" stroke="#454444" stroke-width="2"/>
<circle cx="558.5" cy="93.5" r="5.5" stroke="#454444" stroke-width="2"/>
<circle opacity="0.5" cx="84.5" cy="170.5" r="5.5" stroke="#454444" stroke-width="2"/>
<circle opacity="0.6" cx="621.5" cy="203.5" r="5.5" stroke="#454444" stroke-width="2"/>
<circle opacity="0.6" cx="147.5" cy="280.5" r="5.5" stroke="#454444" stroke-width="2"/>
<circle opacity="0.6" cx="745.5" cy="289.5" r="5.5" stroke="#454444" stroke-width="2"/>
<circle opacity="0.6" cx="543.5" cy="185.5" r="5.5" stroke="#454444" stroke-width="2"/>
<circle opacity="0.6" cx="69.5" cy="262.5" r="5.5" stroke="#454444" stroke-width="2"/>
<circle cx="683.5" cy="40.5" r="5.5" stroke="#454444" stroke-width="2"/>
<circle cx="240.5" cy="50.5" r="5.5" stroke="#454444" stroke-width="2"/>
<circle cx="754.5" cy="77.5" r="5.5" stroke="#454444" stroke-width="2"/>
<circle cx="311.5" cy="87.5" r="5.5" stroke="#454444" stroke-width="2"/>
<circle cx="736.5" cy="57.5" r="5.5" stroke="#454444" stroke-width="2"/>
<circle cx="293.5" cy="67.5" r="5.5" stroke="#454444" stroke-width="2"/>
<circle cx="752.5" cy="94.5" r="5.5" stroke="#454444" stroke-width="2"/>
<circle cx="309.5" cy="104.5" r="5.5" stroke="#454444" stroke-width="2"/>
<circle cx="688.5" cy="77.5" r="5.5" stroke="#454444" stroke-width="2"/>
<circle cx="245.5" cy="87.5" r="5.5" stroke="#454444" stroke-width="2"/>
<circle opacity="0.8" cx="836.5" cy="127.5" r="5.5" stroke="#454444" stroke-width="2"/>
<circle opacity="0.8" cx="362.5" cy="204.5" r="5.5" stroke="#454444" stroke-width="2"/>
<circle opacity="0.4" cx="710.5" cy="201.5" r="5.5" stroke="#454444" stroke-width="2"/>
<circle opacity="0.4" cx="236.5" cy="278.5" r="5.5" stroke="#454444" stroke-width="2"/>
<circle opacity="0.4" cx="854.5" cy="219.5" r="5.5" stroke="#454444" stroke-width="2"/>
<circle opacity="0.4" cx="857.5" cy="291.5" r="5.5" stroke="#454444" stroke-width="2"/>
<circle cx="521.5" cy="93.5" r="5.5" stroke="#454444" stroke-width="2"/>
<circle cx="47.5" cy="170.5" r="5.5" stroke="#454444" stroke-width="2"/>
<circle opacity="0.6" cx="584.5" cy="203.5" r="5.5" stroke="#454444" stroke-width="2"/>
<circle opacity="0.6" cx="110.5" cy="280.5" r="5.5" stroke="#454444" stroke-width="2"/>
<circle opacity="0.6" cx="708.5" cy="289.5" r="5.5" stroke="#454444" stroke-width="2"/>
<circle opacity="0.6" cx="506.5" cy="185.5" r="5.5" stroke="#454444" stroke-width="2"/>
<circle opacity="0.6" cx="32.5" cy="262.5" r="5.5" stroke="#454444" stroke-width="2"/>
<circle opacity="0.8" cx="905.5" cy="127.5" r="5.5" stroke="#454444" stroke-width="2"/>
<circle opacity="0.8" cx="431.5" cy="204.5" r="5.5" stroke="#454444" stroke-width="2"/>
<circle opacity="0.4" cx="779.5" cy="201.5" r="5.5" stroke="#454444" stroke-width="2"/>
<circle opacity="0.4" cx="305.5" cy="278.5" r="5.5" stroke="#454444" stroke-width="2"/>
<circle opacity="0.4" cx="923.5" cy="219.5" r="5.5" stroke="#454444" stroke-width="2"/>
<circle opacity="0.4" cx="926.5" cy="291.5" r="5.5" stroke="#454444" stroke-width="2"/>
<circle cx="590.5" cy="93.5" r="5.5" stroke="#454444" stroke-width="2"/>
<circle opacity="0.5" cx="116.5" cy="170.5" r="5.5" stroke="#454444" stroke-width="2"/>
<circle opacity="0.6" cx="653.5" cy="203.5" r="5.5" stroke="#454444" stroke-width="2"/>
<circle opacity="0.6" cx="179.5" cy="280.5" r="5.5" stroke="#454444" stroke-width="2"/>
<circle cx="767.5" cy="90.5" r="5.5" stroke="#82AD7C" stroke-width="2"/>
<circle cx="324.5" cy="100.5" r="5.5" stroke="#82AD7C" stroke-width="2"/>
<circle opacity="0.8" cx="658.5" cy="226.5" r="5.5" stroke="#82AD7C" stroke-width="2"/>
<circle opacity="0.5" cx="816.5" cy="164.5" r="5.5" stroke="#82AD7C" stroke-width="2"/>
<circle opacity="0.8" cx="342.5" cy="241.5" r="5.5" stroke="#82AD7C" stroke-width="2"/>
<circle opacity="0.6" cx="892.5" cy="40.5" r="5.5" stroke="#82AD7C" stroke-width="2"/>
<circle opacity="0.7" cx="449.5" cy="50.5" r="5.5" stroke="#82AD7C" stroke-width="2"/>
<circle cx="209.5" cy="160.5" r="5.5" stroke="#82AD7C" stroke-width="2"/>
<circle cx="6.5" cy="100.5" r="5.5" stroke="#82AD7C" stroke-width="2"/>
</svg>
