<svg width="160" height="24" viewBox="0 0 160 24" fill="none" xmlns="http://www.w3.org/2000/svg">
<path d="M20.7461 11.9545C20.7461 14.4091 20.2986 16.5303 19.4036 18.3182C18.5086 20.1061 17.2808 21.4848 15.7203 22.4545C14.1597 23.4242 12.3773 23.9091 10.3731 23.9091C8.36883 23.9091 6.58644 23.4242 5.02589 22.4545C3.46534 21.4848 2.23755 20.1061 1.34253 18.3182C0.447511 16.5303 0 14.4091 0 11.9545C0 9.5 0.447511 7.37879 1.34253 5.59091C2.23755 3.80303 3.46534 2.42424 5.02589 1.45455C6.58644 0.484849 8.36883 0 10.3731 0C12.3773 0 14.1597 0.484849 15.7203 1.45455C17.2808 2.42424 18.5086 3.80303 19.4036 5.59091C20.2986 7.37879 20.7461 9.5 20.7461 11.9545ZM17.9922 11.9545C17.9922 9.93939 17.6518 8.23864 16.971 6.85227C16.2978 5.46591 15.3837 4.41667 14.2285 3.70455C13.0811 2.99242 11.7959 2.63636 10.3731 2.63636C8.95021 2.63636 7.66123 2.99242 6.50612 3.70455C5.35865 4.41667 4.44451 5.46591 3.76368 6.85227C3.0905 8.23864 2.75391 9.93939 2.75391 11.9545C2.75391 13.9697 3.0905 15.6705 3.76368 17.0568C4.44451 18.4432 5.35865 19.4924 6.50612 20.2045C7.66123 20.9167 8.95021 21.2727 10.3731 21.2727C11.7959 21.2727 13.0811 20.9167 14.2285 20.2045C15.3837 19.4924 16.2978 18.4432 16.971 17.0568C17.6518 15.6705 17.9922 13.9697 17.9922 11.9545Z" fill="black"/>
<path d="M30.7011 0.318182H34.0976L42.0839 19.6364H42.3593L50.3456 0.318182H53.7421V23.5909H51.08V5.90909H50.8505L43.5068 23.5909H40.9364L33.5927 5.90909H33.3632V23.5909H30.7011V0.318182Z" fill="black"/>
<path d="M83.2527 0.318182V23.5909H80.4988L67.6931 5.31818H67.4636V23.5909H64.6179V0.318182H67.3718L80.2234 18.6364H80.4529V0.318182H83.2527Z" fill="black"/>
<path d="M109.539 0.318182H112.385V15.7273C112.385 17.3182 112.006 18.7386 111.249 19.9886C110.499 21.2311 109.439 22.2121 108.07 22.9318C106.701 23.6439 105.094 24 103.251 24C101.407 24 99.8008 23.6439 98.4315 22.9318C97.0622 22.2121 95.9989 21.2311 95.2415 19.9886C94.4919 18.7386 94.117 17.3182 94.117 15.7273V0.318182H96.9627V15.5C96.9627 16.6364 97.2152 17.6477 97.7201 18.5341C98.2249 19.4129 98.944 20.1061 99.8773 20.6136C100.818 21.1136 101.943 21.3636 103.251 21.3636C104.559 21.3636 105.683 21.1136 106.624 20.6136C107.565 20.1061 108.284 19.4129 108.782 18.5341C109.286 17.6477 109.539 16.6364 109.539 15.5V0.318182Z" fill="black"/>
<path d="M123.237 0.318182H126.634L134.62 19.6364H134.896L142.882 0.318182H146.279V23.5909H143.616V5.90909H143.387L136.043 23.5909H133.473L126.129 5.90909H125.9V23.5909H123.237V0.318182Z" fill="black"/>
<path d="M160 0.318182V23.5909H157.154V0.318182H160Z" fill="black"/>
</svg>
