<svg width="234" height="438" viewBox="0 0 234 438" fill="none" xmlns="http://www.w3.org/2000/svg">
<rect width="234" height="438" fill="black"/>
<path d="M24.929 21.8182C24.929 23.1222 24.6935 24.2491 24.2227 25.1989C23.7518 26.1487 23.1058 26.8812 22.2848 27.3963C21.4638 27.9115 20.526 28.169 19.4716 28.169C18.4171 28.169 17.4794 27.9115 16.6584 27.3963C15.8374 26.8812 15.1914 26.1487 14.7205 25.1989C14.2496 24.2491 14.0142 23.1222 14.0142 21.8182C14.0142 20.5142 14.2496 19.3873 14.7205 18.4375C15.1914 17.4877 15.8374 16.7552 16.6584 16.2401C17.4794 15.7249 18.4171 15.4673 19.4716 15.4673C20.526 15.4673 21.4638 15.7249 22.2848 16.2401C23.1058 16.7552 23.7518 17.4877 24.2227 18.4375C24.6935 19.3873 24.929 20.5142 24.929 21.8182ZM23.4801 21.8182C23.4801 20.7476 23.301 19.8441 22.9428 19.1076C22.5887 18.3711 22.1077 17.8137 21.5 17.4354C20.8963 17.0571 20.2202 16.8679 19.4716 16.8679C18.723 16.8679 18.0449 17.0571 17.4371 17.4354C16.8335 17.8137 16.3525 18.3711 15.9943 19.1076C15.6402 19.8441 15.4631 20.7476 15.4631 21.8182C15.4631 22.8887 15.6402 23.7923 15.9943 24.5288C16.3525 25.2653 16.8335 25.8227 17.4371 26.201C18.0449 26.5793 18.723 26.7685 19.4716 26.7685C20.2202 26.7685 20.8963 26.5793 21.5 26.201C22.1077 25.8227 22.5887 25.2653 22.9428 24.5288C23.301 23.7923 23.4801 22.8887 23.4801 21.8182Z" fill="#FEFEFE"/>
<path d="M24.3011 43.6364V56H22.8523L16.1151 46.2926H15.9943V56H14.4972V43.6364H15.946L22.7074 53.3679H22.8281V43.6364H24.3011Z" fill="#FEFEFE"/>
<rect x="11" y="35" width="234" height="438" fill="#FEFEFE"/>
</svg>
