<svg width="280" height="300" viewBox="0 0 92 102" fill="white" xmlns="http://www.w3.org/2000/svg">
<rect x="28" width="39" height="73" fill="black"/>
<path d="M12.6307 94.4545C12.6307 95.8352 12.3814 97.0284 11.8828 98.0341C11.3842 99.0398 10.7003 99.8153 9.83097 100.361C8.96165 100.906 7.96875 101.179 6.85227 101.179C5.7358 101.179 4.7429 100.906 3.87358 100.361C3.00426 99.8153 2.32031 99.0398 1.82173 98.0341C1.32315 97.0284 1.07386 95.8352 1.07386 94.4545C1.07386 93.0739 1.32315 91.8807 1.82173 90.875C2.32031 89.8693 3.00426 89.0938 3.87358 88.5483C4.7429 88.0028 5.7358 87.7301 6.85227 87.7301C7.96875 87.7301 8.96165 88.0028 9.83097 88.5483C10.7003 89.0938 11.3842 89.8693 11.8828 90.875C12.3814 91.8807 12.6307 93.0739 12.6307 94.4545ZM11.0966 94.4545C11.0966 93.321 10.907 92.3643 10.5277 91.5845C10.1527 90.8047 9.64347 90.2145 9 89.8139C8.3608 89.4134 7.64489 89.2131 6.85227 89.2131C6.05966 89.2131 5.34162 89.4134 4.69815 89.8139C4.05895 90.2145 3.54972 90.8047 3.17045 91.5845C2.79545 92.3643 2.60795 93.321 2.60795 94.4545C2.60795 95.5881 2.79545 96.5447 3.17045 97.3246C3.54972 98.1044 4.05895 98.6946 4.69815 99.0952C5.34162 99.4957 6.05966 99.696 6.85227 99.696C7.64489 99.696 8.3608 99.4957 9 99.0952C9.64347 98.6946 10.1527 98.1044 10.5277 97.3246C10.907 96.5447 11.0966 95.5881 11.0966 94.4545ZM18.1762 87.9091H20.0682L24.5171 98.7756H24.6705L29.1193 87.9091H31.0114V101H29.5284V91.054H29.4006L25.3097 101H23.8779L19.787 91.054H19.6591V101H18.1762V87.9091ZM47.4505 87.9091V101H45.9164L38.7829 90.7216H38.6551V101H37.0698V87.9091H38.6039L45.763 98.2131H45.8909V87.9091H47.4505ZM62.0935 87.9091H63.6787V96.5767C63.6787 97.4716 63.4678 98.2706 63.0459 98.9737C62.6283 99.6726 62.0381 100.224 61.2753 100.629C60.5125 101.03 59.6176 101.23 58.5906 101.23C57.5637 101.23 56.6688 101.03 55.906 100.629C55.1432 100.224 54.5509 99.6726 54.129 98.9737C53.7114 98.2706 53.5026 97.4716 53.5026 96.5767V87.9091H55.0878V96.4489C55.0878 97.0881 55.2284 97.657 55.5097 98.1555C55.7909 98.6499 56.1915 99.0398 56.7114 99.3253C57.2355 99.6065 57.8619 99.7472 58.5906 99.7472C59.3193 99.7472 59.9458 99.6065 60.4699 99.3253C60.994 99.0398 61.3946 98.6499 61.6716 98.1555C61.9529 97.657 62.0935 97.0881 62.0935 96.4489V87.9091ZM69.7244 87.9091H71.6164L76.0653 98.7756H76.2187L80.6676 87.9091H82.5596V101H81.0766V91.054H80.9488L76.8579 101H75.4261L71.3352 91.054H71.2073V101H69.7244V87.9091ZM90.2033 87.9091V101H88.618V87.9091H90.2033Z" fill="black"/>
<path d="M52.929 21.8182C52.929 23.1222 52.6935 24.2491 52.2227 25.1989C51.7518 26.1487 51.1058 26.8812 50.2848 27.3963C49.4638 27.9115 48.526 28.169 47.4716 28.169C46.4171 28.169 45.4794 27.9115 44.6584 27.3963C43.8374 26.8812 43.1914 26.1487 42.7205 25.1989C42.2496 24.2491 42.0142 23.1222 42.0142 21.8182C42.0142 20.5142 42.2496 19.3873 42.7205 18.4375C43.1914 17.4877 43.8374 16.7552 44.6584 16.2401C45.4794 15.7249 46.4171 15.4673 47.4716 15.4673C48.526 15.4673 49.4638 15.7249 50.2848 16.2401C51.1058 16.7552 51.7518 17.4877 52.2227 18.4375C52.6935 19.3873 52.929 20.5142 52.929 21.8182ZM51.4801 21.8182C51.4801 20.7476 51.301 19.8441 50.9428 19.1076C50.5887 18.3711 50.1077 17.8137 49.5 17.4354C48.8963 17.0571 48.2202 16.8679 47.4716 16.8679C46.723 16.8679 46.0449 17.0571 45.4371 17.4354C44.8335 17.8137 44.3525 18.3711 43.9943 19.1076C43.6402 19.8441 43.4631 20.7476 43.4631 21.8182C43.4631 22.8887 43.6402 23.7923 43.9943 24.5288C44.3525 25.2653 44.8335 25.8227 45.4371 26.201C46.0449 26.5793 46.723 26.7685 47.4716 26.7685C48.2202 26.7685 48.8963 26.5793 49.5 26.201C50.1077 25.8227 50.5887 25.2653 50.9428 24.5288C51.301 23.7923 51.4801 22.8887 51.4801 21.8182Z" fill="#FEFEFE"/>
<path d="M52.3011 43.6364V56H50.8523L44.1151 46.2926H43.9943V56H42.4972V43.6364H43.946L50.7074 53.3679H50.8281V43.6364H52.3011Z" fill="#FEFEFE"/>
<rect x="39" y="35" width="17" height="1.5" fill="#FEFEFE"/>
</svg>
